<?xml version="1.0" encoding="UTF-8" standalone="no"?>
<!-- Created with Inkscape (http://www.inkscape.org/) -->

<svg
   width="93.86235mm"
   height="93.865631mm"
   viewBox="0 0 93.86235 93.865631"
   version="1.1"
   id="svg664"
   xml:space="preserve"
   inkscape:version="1.2.2 (b0a8486541, 2022-12-01)"
   sodipodi:docname="no-singing.svg"
   inkscape:export-filename="no-singing.png"
   inkscape:export-xdpi="300"
   inkscape:export-ydpi="300"
   xmlns:inkscape="http://www.inkscape.org/namespaces/inkscape"
   xmlns:sodipodi="http://sodipodi.sourceforge.net/DTD/sodipodi-0.dtd"
   xmlns="http://www.w3.org/2000/svg"
   xmlns:svg="http://www.w3.org/2000/svg"><sodipodi:namedview
     id="namedview666"
     pagecolor="#ffffff"
     bordercolor="#666666"
     borderopacity="1.0"
     inkscape:showpageshadow="2"
     inkscape:pageopacity="0.0"
     inkscape:pagecheckerboard="0"
     inkscape:deskcolor="#d1d1d1"
     inkscape:document-units="mm"
     showgrid="false"
     inkscape:zoom="1.0641451"
     inkscape:cx="195.46207"
     inkscape:cy="67.659948"
     inkscape:window-width="1920"
     inkscape:window-height="1122"
     inkscape:window-x="0"
     inkscape:window-y="42"
     inkscape:window-maximized="1"
     inkscape:current-layer="layer1" /><defs
     id="defs661"><filter
       inkscape:label="Chalk and Sponge"
       inkscape:menu="Distort"
       inkscape:menu-tooltip="Low turbulence gives sponge look and high turbulence chalk"
       width="1"
       height="1"
       y="0"
       x="0"
       style="color-interpolation-filters:sRGB"
       id="filter1721"><feTurbulence
         baseFrequency="0.4"
         type="fractalNoise"
         seed="0"
         numOctaves="5"
         result="result1"
         id="feTurbulence1717" /><feDisplacementMap
         xChannelSelector="R"
         yChannelSelector="G"
         scale="30"
         in="SourceGraphic"
         in2="result1"
         id="feDisplacementMap1719" /></filter><filter
       y="-0.44561476"
       height="1.8912295"
       inkscape:label="Rough and Dilate"
       inkscape:menu="Distort"
       inkscape:menu-tooltip="Create a turbulent contour around"
       style="color-interpolation-filters:sRGB"
       id="filter1783"
       x="-0.14062344"
       width="1.2812469"><feMorphology
         radius="7"
         operator="dilate"
         result="result8"
         in="SourceGraphic"
         id="feMorphology1773" /><feComposite
         in2="result8"
         result="result10"
         in="SourceGraphic"
         operator="arithmetic"
         k1="0.5"
         k3="0.5"
         id="feComposite1775"
         k2="0"
         k4="0" /><feTurbulence
         result="result11"
         type="fractalNoise"
         numOctaves="3"
         baseFrequency="0.07"
         id="feTurbulence1777" /><feDisplacementMap
         result="result12"
         in2="result11"
         in="result10"
         xChannelSelector="R"
         scale="10"
         id="feDisplacementMap1779"
         yChannelSelector="A" /><feComposite
         operator="arithmetic"
         result="result13"
         in="SourceGraphic"
         in2="result12"
         k1="0.25"
         k2="0.25"
         k3="0.75"
         id="feComposite1781"
         k4="0" /></filter><filter
       inkscape:label="Torn Edges"
       inkscape:menu="Distort"
       inkscape:menu-tooltip="Displace the outside of shapes and pictures without altering their content"
       height="1"
       y="0"
       width="1"
       x="0"
       style="color-interpolation-filters:sRGB"
       id="filter1807"><feTurbulence
         baseFrequency="0.05"
         numOctaves="5"
         type="fractalNoise"
         result="result91"
         id="feTurbulence1801" /><feDisplacementMap
         scale="25"
         result="result5"
         xChannelSelector="R"
         in="SourceGraphic"
         in2="result91"
         id="feDisplacementMap1803"
         yChannelSelector="A" /><feComposite
         in="SourceGraphic"
         operator="atop"
         in2="result5"
         id="feComposite1805" /></filter></defs><g
     inkscape:label="Layer 1"
     inkscape:groupmode="layer"
     id="layer1"
     transform="translate(-92.10913,-6.1182539)"><ellipse
       style="opacity:1;fill:#ffffff;fill-rule:evenodd;stroke:none;stroke-width:2.04803;stroke-linecap:round;stroke-linejoin:round;stop-color:#000000"
       id="path1809"
       ry="44.501003"
       rx="43.682362"
       cy="54.036148"
       cx="139.39711" /><path
       id="path138590"
       style="fill:#000000;stroke-width:0.151412"
       d="m 161.93585,40.255424 v 5.17e-4 c -0.84624,-0.0062 -1.80762,0.06966 -2.75797,0.22996 -1.99379,0.336282 -2.52928,0.62181 -3.94343,2.100647 -0.85302,0.892058 -1.39078,1.329651 -2.10581,1.714107 -0.52814,0.283965 -1.04304,0.623844 -1.14464,0.754993 -0.10161,0.13114 -0.21862,0.841774 -0.25993,1.579232 -0.10779,1.924893 -0.20739,2.577435 -0.68833,3.947045 0,0 0.30211,0.101033 0.57258,0.158647 -0.12059,0.21998 -0.23611,0.433641 -0.34055,0.630453 l -1.3932,2.645833 c 1.06811,0.0062 3.03727,-0.977289 3.12281,-0.836125 0.10691,0.176356 0.0421,1.214254 -0.48266,1.796273 -1.80989,2.445982 0.18922,1.285962 1.58595,0.711584 1.24268,-0.886493 1.34867,-0.701413 1.85519,-0.526066 0.0793,0.02747 0.17294,0.117619 0.14314,0.09147 0.0263,0.06068 -0.0374,0.145622 -0.19689,0.296106 -0.59566,0.561695 -2.10765,1.723473 -2.78432,2.138887 -2.12574,1.41306 -0.5618,0.983805 1.14256,1.190625 0.77719,0.09432 1.33263,0.257882 1.79369,0.296623 -1.48758,0.903302 -2.96244,1.432096 -3.05459,3.256649 -0.0384,0.04716 -0.33071,0.03037 -0.64958,-0.03721 -0.52067,-0.11033 -0.59072,-0.176517 -0.68626,-0.649573 -0.12302,-0.609163 -0.14727,-1.019766 -0.28577,-1.838131 -0.0793,-0.468526 -0.33152,-0.682459 -0.42426,-0.717269 -0.29894,-0.0514 -0.43298,0.704883 -0.59532,1.109493 -0.11727,0.04531 -0.53235,-0.691697 -1.2578,-2.233972 -0.73707,-0.781754 -1.58182,-1.285086 -1.73891,-1.18494 -0.0825,0.05265 -0.32254,0.417104 -0.3266,1.062984 0.007,1.054713 0.32726,2.145515 0.31678,2.372465 -0.0179,0.387608 -0.28856,0.515852 -1.61644,-0.727088 -0.64259,-0.514642 -1.05748,-0.485394 -1.16685,-0.375171 -0.19332,0.194799 0.0523,2.18896 0.12609,2.508891 0.0547,0.300015 0.0456,0.566504 -0.0202,0.591695 -1.3892,-0.471599 -1.23894,-0.474118 -2.02313,-0.395841 l 1.09761,1.378727 -0.21963,0.492477 c -0.28914,0.648078 0.0663,1.646155 0.78032,2.190564 0.73146,0.557763 1.59854,0.555694 3.08043,-0.0078 0.67473,-0.256565 1.3442,-0.465711 1.48776,-0.465605 0.14357,1.15e-4 0.72551,0.342146 1.29347,0.760677 0.56793,0.418525 1.35318,0.911763 1.74511,1.096058 0.91488,0.430201 1.47386,0.238125 2.3213,-0.796334 1.29221,-1.577359 1.6138,-1.886086 2.1916,-2.107365 0.44223,-0.169361 -0.0884,0.243272 -0.0517,0.627869 0.0441,0.463128 -0.43018,1.248381 -0.78909,2.109948 -0.56444,1.354957 -0.61542,1.395262 -1.60869,1.27124 -2.57627,-0.321662 -3.57129,-0.317388 -5.7056,0.02377 l -2.20761,0.35295 -0.87954,-0.393258 c -0.48371,-0.21636 -1.99674,-1.039363 -3.36155,-1.828829 -1.91796,-1.10945 -2.94825,-1.61173 -4.53822,-2.210718 -2.12529,-0.800664 -2.35093,-0.944607 -3.03548,-1.939416 -0.20883,-0.303477 -0.90776,-1.135833 -1.55339,-1.850016 -1.17512,-1.29986 -2.00398,-2.426643 -2.29443,-3.118673 -0.19581,-0.466504 0.0521,-1.275461 0.67437,-2.198832 0.68075,-1.010196 0.71774,-1.588886 0.15762,-2.454631 -0.49666,-0.767648 -1.54289,-1.765986 -2.23966,-2.13682 l -0.44132,-0.234611 -0.3855,1.204061 c -0.40529,1.264933 -0.78649,2.069358 -0.95498,2.01538 -0.055,-0.01766 -0.2583,-0.622338 -0.45165,-1.343587 -0.19332,-0.721311 -0.52837,-1.615801 -0.74415,-1.987475 -0.3421,-0.589243 -0.48889,-0.706861 -1.14825,-0.919324 -0.41594,-0.13387 -1.15075,-0.444112 -1.63245,-0.689364 -2.79547,-1.423242 -3.68606,-1.654378 -5.39296,-1.400948 -1.12313,0.166763 -2.50748,0.865897 -3.64422,1.841231 l -0.67541,0.57981 1.53272,0.535885 c 1.43895,0.503353 1.52963,0.55588 1.47847,0.856795 -0.0399,0.234768 -0.28428,0.398188 -0.91158,0.610299 -1.4776,0.499616 -2.29629,1.01433 -2.58692,1.626257 -0.2351,0.495006 -0.22545,0.633714 0.0966,1.348755 0.38416,0.852866 1.05803,1.546436 1.82417,1.877921 0.68031,0.294344 0.91012,0.04815 0.99323,-1.063501 l 0.0661,-0.888318 0.62632,-0.24753 c 0.34442,-0.136378 1.28166,-0.364785 2.08308,-0.507462 l 1.45727,-0.259416 0.40101,0.662492 c 0.22065,0.364247 0.7206,1.268485 1.11053,2.009696 0.76993,1.463513 2.1138,2.943884 2.9037,3.198772 0.37279,0.120036 0.61738,0.461778 1.44074,2.011763 0.95079,1.789891 2.45039,3.897511 3.53311,4.966622 0.81223,0.802016 2.02846,1.447265 4.52893,2.400887 2.13434,0.813993 2.44117,0.972168 3.64939,1.882572 0.91557,0.689911 1.77478,1.194939 2.80964,1.651062 1.52608,0.672627 2.65661,1.48208 2.45463,1.758033 -0.1795,0.245242 -1.98121,0.546185 -3.34243,0.558622 -1.05331,0.0096 -1.50914,-0.07218 -2.94607,-0.5302 -1.69925,-0.542042 -2.69984,-0.686843 -4.16926,-0.603064 -0.65875,0.03754 -0.90253,-0.02614 -1.93838,-0.505396 -1.06305,-0.491826 -1.29636,-0.673858 -2.26963,-1.771985 -1.20931,-1.364487 -1.64318,-1.710746 -2.75952,-2.200382 -0.42169,-0.184985 -1.20586,-0.554739 -1.74253,-0.821655 l -0.97565,-0.485242 0.27182,-1.126546 c 0.31507,-1.304929 0.32265,-2.074111 0.0227,-2.318205 -0.11654,-0.09484 -0.73,-0.436762 -1.36271,-0.759644 -0.85256,-0.435075 -1.26806,-0.744477 -1.60455,-1.195276 -1.11099,-1.488067 -2.04924,-2.061781 -3.89951,-2.3828 -0.68343,-0.11858 -1.25588,-0.173416 -1.27176,-0.121956 -0.0159,0.0515 0.42566,0.905969 0.98134,1.899109 0.55568,0.993131 0.99049,1.867147 0.96635,1.942517 -0.0242,0.07534 -0.21625,0.157563 -0.42685,0.182418 -0.32369,0.03816 -0.56416,-0.135367 -1.55494,-1.122413 -1.24504,-1.240316 -2.49454,-2.020885 -3.41065,-2.130102 -0.28596,-0.03409 -1.07068,-0.01803 -1.74356,0.03514 -1.11189,0.0878 -1.36793,0.05002 -2.80913,-0.412895 -1.21124,-0.389286 -1.81919,-0.667454 -2.574,-1.178739 -1.20497,-0.816203 -1.23624,-0.827494 -1.71049,-0.583427 -0.73197,0.376736 -0.65452,0.712766 0.3824,1.660364 2.01924,1.845301 2.47398,2.140997 4.24367,2.758488 1.27401,0.444492 1.77359,0.688167 2.21899,1.081587 0.31626,0.279329 0.59269,0.577702 0.61391,0.663009 0.0535,0.215467 -3.53869,0.324423 -4.63589,0.14056 -1.70259,-0.285316 -2.15401,-0.131463 -2.30322,0.785998 -0.0778,0.478428 -0.22114,0.750225 -0.59376,1.125513 -0.59275,0.597007 -0.69819,0.879847 -0.49506,1.328084 0.17196,0.379448 1.2033,0.788785 1.73994,0.690398 0.17264,-0.03162 0.8087,-0.327534 1.41387,-0.657325 1.25964,-0.686421 2.70435,-1.12176 2.98225,-0.898653 0.26543,0.213099 0.0381,0.805685 -0.48163,1.255221 -0.69803,0.603888 -0.75559,1.042284 -0.22324,1.705839 0.25242,0.314623 0.79004,1.176499 1.19424,1.914612 l 0.73484,1.342036 1.20923,0.38654 c 1.34757,0.430563 2.35511,0.530399 2.4474,0.242363 0.11871,-0.370508 -0.27999,-1.089103 -1.02681,-1.850533 -1.07386,-1.094912 -1.3638,-1.510934 -1.46245,-2.09548 -0.0716,-0.424449 -0.0466,-0.523386 0.14625,-0.573608 0.31589,-0.08224 1.08019,0.170593 1.48104,0.490409 0.18039,0.143931 0.72668,0.463486 1.21388,0.710034 1.54259,0.780633 3.40956,0.908684 5.48339,0.375688 0.50215,-0.129056 1.03418,-0.195788 1.18236,-0.148311 0.14817,0.04752 0.5363,0.431298 0.86248,0.853178 0.3262,0.421871 1.19789,1.242785 1.93735,1.824178 0.73945,0.581391 2.1962,1.750132 3.23649,2.597257 2.92153,2.379097 4.14931,3.117879 6.39858,3.848344 1.7431,0.566059 1.96894,0.604554 3.27887,0.560689 0.77379,-0.02593 1.96587,0.04882 2.64945,0.165882 0.69315,0.118766 2.37553,0.190244 3.80338,0.161747 5.09022,-0.10161 4.94537,-0.10638 5.47305,0.1788 0.7321,0.395705 2.1082,2.218376 3.03651,4.021977 1.31424,2.553451 2.13674,6.05684 1.942,8.269263 -0.005,0.0547 -0.005,0.08605 -0.01,0.137976 a 43.735214,43.104382 0 0 0 1.16841,-0.392224 c 8.4e-4,-0.01272 1.3e-4,-0.02337 10e-4,-0.03617 0.0301,-0.427577 0.002,-1.366797 -0.063,-2.087211 -0.065,-0.720403 -0.0766,-1.896468 -0.0253,-2.613794 0.0513,-0.717303 0.002,-1.663137 -0.108,-2.10168 -0.93564,-3.705514 -2.06545,-8.008776 -2.23087,-8.497673 -0.11094,-0.327886 -0.43598,-0.920131 -0.72244,-1.315682 -0.90485,-1.249414 -1.53582,-1.617624 -5.33972,-3.116089 -4.35735,-1.716455 -5.86137,-2.43974 -6.87917,-3.309875 -2.15482,-1.842155 -2.30985,-1.932936 -4.56716,-2.659786 -3.87402,-1.247436 -4.1817,-1.522543 -6.48798,-5.792928 l -1.70636,-3.15898 -0.88986,-0.40101 c -0.87136,-0.39297 -0.90231,-0.427105 -1.51567,-1.671732 -0.64844,-1.315811 -2.29759,-3.365702 -3.04013,-3.778581 -0.51897,-0.288559 -1.10601,-0.192132 -3.18792,0.523482 -1.63464,0.561871 -1.79013,0.675084 -2.17764,1.588534 -0.22964,0.541352 -0.66078,0.429605 -0.8878,-0.230477 -0.23237,-0.675637 0.0781,-1.081054 1.28622,-1.677417 0.55823,-0.275566 1.34133,-0.790201 1.73943,-1.143599 1.90558,-1.691664 2.56898,-1.641837 4.1119,0.307991 0.87889,1.110669 1.87878,2.084321 2.27221,2.212785 0.25082,0.08153 0.2558,0.06629 0.14263,-0.444934 -0.0645,-0.291579 -0.2785,-0.800604 -0.47543,-1.131197 -0.40728,-0.683728 -2.89729,-3.110028 -3.33933,-3.254065 -0.16057,-0.05203 -0.70473,0.04855 -1.20923,0.223759 -0.76183,0.264631 -1.07191,0.28398 -1.82779,0.115238 -0.50053,-0.111753 -1.03204,-0.153617 -1.18133,-0.09353 -0.4259,0.171427 -0.39705,-0.02366 0.0625,-0.422197 0.61206,-0.530734 2.11277,-1.044938 3.08043,-1.055749 1.01123,-0.01131 2.42171,0.435176 3.04065,0.962732 0.24719,0.210707 0.81382,1.075499 1.25883,1.921846 0.445,0.84635 0.88823,1.519052 0.98496,1.495 0.10205,-0.02535 0.10869,0.01374 0.016,0.09302 -0.32443,0.27727 0.85465,1.834001 1.2392,1.636076 0.21414,-0.110204 -0.257,-1.670964 -0.91778,-3.040125 -0.7144,-1.480267 -0.6184,-1.670287 0.37001,-0.729154 0.53163,0.506223 0.84299,1.345119 1.18339,3.19102 0.09,0.487921 0.242,0.912507 0.33744,0.943095 0.17702,0.05671 1.22636,-0.26969 1.98231,-0.6165 0.34894,-0.160076 0.46773,-0.343284 0.70694,-1.089856 l 0.28783,-0.897103 0.29456,0.54467 c 0.36319,0.669992 0.4849,1.488583 0.30437,2.052071 -0.11381,0.355219 -0.24336,0.437179 -0.78703,0.499194 -0.35771,0.04081 -0.71929,0.159633 -0.80357,0.264583 -0.0923,0.115039 0.0293,0.714227 0.30593,1.508435 0.37324,1.07169 0.59917,1.45554 1.21233,2.056206 0.94778,0.928466 2.43365,2.741854 3.52898,4.308781 l 0.84284,1.206644 2.06654,0.661975 c 1.81347,0.58103 2.2523,0.779246 3.58583,1.615922 2.13499,1.339501 3.50922,1.973388 5.49527,2.535763 1.70483,0.482738 1.73472,0.484982 3.22875,0.246496 2.78598,-0.444712 5.06118,-0.41551 6.63732,0.08527 0.70501,0.224087 0.98417,0.408505 1.60145,1.0604 l 0.74724,0.789616 0.41445,-0.27957 c 0.22771,-0.153856 0.43174,-0.336021 0.45372,-0.404626 0.0957,-0.298592 -0.40945,-0.922308 -1.13017,-1.395781 l -0.77928,-0.512113 0.26407,-1.124996 c 0.47912,-2.03978 1.1894,-3.068687 0.60254,-3.939811 -0.67739,-1.00548 -2.74311,0.07229 -3.60443,1.771468 -0.27855,0.549504 -0.56689,1.022273 -0.64078,1.050582 -0.22635,0.08665 -0.93366,-0.319236 -1.89446,-1.087272 -1.36107,-1.088058 -1.62275,-1.132663 -3.17345,-0.540019 -0.70904,0.271043 -1.57012,0.521484 -1.91358,0.556038 -0.69583,0.07005 -1.63583,-0.250264 -1.77095,-0.603064 -0.17111,-0.446823 0.69425,-1.72499 1.33377,-1.969905 0.40762,-0.156111 3.29988,-0.04936 5.40122,0.199471 2.18186,0.258413 2.82616,0.13371 3.2861,-0.636137 0.27027,-0.452397 2.48999,-1.107537 3.2613,-2.231905 0.87313,-1.272831 1.66033,-2.808182 1.78336,-4.379578 0.0316,-0.402634 -0.1464,-0.786351 -0.27802,-1.176672 0.0444,-0.285652 0.0552,-0.674387 0.0248,-1.120345 -0.021,-0.310614 -0.21961,-0.846306 -0.46302,-1.247986 -0.19686,-0.324852 -0.34619,-0.522646 -0.57102,-0.696598 -0.10393,-0.09885 -0.21053,-0.194869 -0.31833,-0.286288 -0.42339,-0.359035 -0.89626,-0.678358 -1.41283,-0.8816 -0.74099,-0.291526 -1.57264,-0.261921 -2.34508,-0.455269 -0.24453,-0.06121 -0.53475,-0.07288 -0.80874,-0.10697 -0.0128,-0.0096 -0.0208,-0.01834 -0.0207,-0.02532 l -0.55035,-0.135392 c -0.1,-0.05706 -0.18743,-0.129347 -0.24857,-0.234094 -0.1865,-0.319492 0.0813,-0.554806 0.23668,-1.084172 0.18376,-0.626148 0.22788,-1.171968 0.12558,-1.561662 -0.0909,-0.346341 -0.0675,-0.832148 0.0558,-1.151867 0.1945,-0.504432 0.3164,-0.607938 1.38906,-1.176673 0.64678,-0.342923 1.31734,-0.804873 1.49035,-1.026294 0.45135,-0.578811 1.51799,-1.358068 2.50992,-1.83503 0.7699,-0.370202 1.80569,-0.583533 2.86391,-0.615466 0.63514,-0.01908 1.27884,0.02746 1.8774,0.144177 l 1.32085,0.257349 3.05201,1.122929 c 1.17301,0.431595 1.69521,1.830955 2.66082,2.48822 0.49039,0.3338 0.68205,1.073618 0.90331,1.283643 0.68562,0.650808 1.59044,1.548285 1.91358,2.452046 0.47573,1.330535 1.16229,5.293374 1.07332,6.194971 -0.23828,2.415112 -1.09508,4.250463 -2.38125,5.099947 -0.82874,0.54736 -1.32347,0.644199 -3.09749,0.608232 -2.48174,-0.05035 -5.48849,0.592113 -6.80475,1.454175 -0.96108,0.629459 -1.54551,2.082013 -1.33119,3.306774 0.0552,0.31519 -0.13249,0.09674 0.18242,0.439767 0.68187,0.742802 1.90008,2.9179 2.38538,4.259688 0.26383,0.729445 0.3157,1.172224 0.21601,1.837614 -0.12308,0.821369 -0.0843,0.967266 0.61702,2.322339 0.76721,1.482459 1.28268,3.084698 1.85415,5.761922 0.64333,3.01393 0.59839,5.491049 -0.12868,7.256405 a 43.735214,43.104382 0 0 0 1.51102,-1.099158 c 0.11264,-0.514886 0.14065,-0.880228 0.1416,-1.363224 0.003,-1.622017 -0.43104,-6.088777 -0.66198,-6.810437 -0.32269,-1.008398 -1.0534,-2.397433 -1.23713,-2.351795 -0.0937,0.02332 -0.10236,-0.0163 -0.0186,-0.08785 0.0837,-0.07163 -0.048,-0.694329 -0.293,-1.384928 -0.24493,-0.690228 -0.5895,-1.893875 -0.76585,-2.674772 -0.82516,-3.653784 -1.53213,-3.29233 -2.34197,-4.598169 -0.27544,-0.44413 -0.53823,-1.053431 -0.58395,-1.353923 -0.16519,-1.085627 0.70446,-2.418503 2.05363,-3.147094 0.83543,-0.451161 1.78647,-0.61305 3.64835,-0.620117 3.60304,-0.01369 5.68927,-0.77114 7.08794,-2.57452 0.49801,-0.642241 0.76838,-1.571745 0.99684,-3.428732 0.16065,-1.305996 0.0789,-2.264818 -0.33796,-3.967716 -0.17705,-0.723281 -0.39858,-1.780945 -0.49196,-2.350244 -0.27966,-1.704993 -1.23401,-1.755895 -1.9451,-3.280937 -2.61815,-5.61513 -7.51073,-5.603952 -8.21811,-5.851322 -0.49057,-0.171551 -1.22185,-0.261603 -2.06809,-0.268201 z m -1.92805,3.742924 v 5.17e-4 c -0.25317,7.52e-4 -0.54464,0.01258 -0.8847,0.03617 -0.70326,0.04884 -1.58826,0.06599 -1.96628,0.03772 -0.78494,-0.05865 -1.42555,0.403278 -1.70171,1.226282 -0.15808,0.471113 -0.0953,0.611749 0.58704,1.317232 0.5246,0.542402 1.74245,1.300286 2.23191,1.389063 0.51472,0.09336 1.23504,-0.0062 1.73891,-0.241329 0.42265,-0.196936 1.29019,-1.344423 1.71824,-2.27273 0.29936,-0.649253 0.29712,-0.731952 -0.0274,-1.037663 -0.0577,-0.05432 -0.11398,-0.107545 -0.17931,-0.147277 -0.34297,-0.208621 -0.75722,-0.31028 -1.51671,-0.307992 z m -0.22686,1.237134 c 0.18537,0.0026 0.30201,0.02894 0.35709,0.08733 0.11011,0.116646 -0.0266,0.360277 -0.35553,0.788066 -0.24598,0.320303 -0.55314,0.537185 -0.8723,0.617016 -0.75641,0.189207 -1.61434,-0.617571 -1.21078,-1.138432 0.0652,-0.08418 0.65583,-0.21706 1.31258,-0.295072 0.32946,-0.03913 0.58357,-0.0613 0.76894,-0.05891 z m -7.49411,5.615161 0.77308,0.189652 c 0.0335,0.0079 0.0661,0.01648 0.0982,0.02532 0.0857,0.08683 0.17361,0.171036 0.27802,0.225826 0.10426,0.05476 0.21289,0.09804 0.3235,0.137459 -0.24312,0.304776 -1.46456,1.141921 -1.97249,1.332735 -0.28549,0.107225 -0.54901,0.145513 -0.5855,0.08527 -0.0365,-0.06024 0.19288,-0.534169 0.50953,-1.053165 z m 3.14606,1.041797 c 0.16896,0.03772 0.33846,0.07473 0.50333,0.119889 0.33199,0.203216 0.7752,0.522338 1.09192,0.72347 0.0789,0.110852 0.15092,0.227286 0.21342,0.350883 -0.25755,0.196564 -0.85674,0.586043 -1.54305,0.997872 -0.90439,0.542695 -1.82844,1.011677 -2.05362,1.041797 -0.3846,0.05141 -0.34574,-0.04398 0.64078,-1.571997 0.49791,-0.771181 0.96993,-1.453487 1.14722,-1.661914 z m 10.70012,0.131775 c -0.33647,-0.02809 -0.66524,0.07031 -0.99735,0.294039 -0.611,0.411623 -0.8349,1.106045 -0.38138,1.182873 0.17268,0.02924 0.60778,-0.02536 0.96687,-0.120923 0.73241,-0.19486 1.09423,-0.0095 1.17151,0.599447 0.0461,0.362966 -0.0625,0.550828 -0.92295,1.593184 -0.86185,1.044017 -1.03397,1.191024 -1.47742,1.261422 -0.66879,0.106177 -0.94006,-0.136673 -0.8599,-0.771529 0.0363,-0.287878 -0.007,-0.579678 -0.0951,-0.648539 -0.29077,-0.225288 -0.81382,-0.240818 -0.97255,-0.02842 -0.20148,0.269381 -0.21641,1.620561 -0.0227,2.073258 0.0825,0.193112 0.22976,0.415707 0.32711,0.494027 0.25695,0.207138 1.94811,0.0886 2.85099,-0.199471 l 0.77669,-0.24753 0.0625,-0.592212 c 0.0716,-0.675877 0.30081,-1.023631 0.94051,-1.428854 0.97307,-0.616394 1.02606,-2.505471 -0.32349,-2.996716 -0.36295,-0.281643 -0.70689,-0.435992 -1.04335,-0.464054 z m -0.56792,1.992643 -0.38964,0.236678 c -0.52157,0.316772 -0.99794,0.950027 -0.95705,1.272274 0.1101,0.867237 1.38061,-0.103102 1.35806,-1.037146 z m -8.2057,1.709456 h 5.1e-4 c 0.003,2.1e-5 0.007,4.75e-4 0.009,10e-4 0.004,8.84e-4 0.007,0.0025 0.008,0.0052 0.13285,0.240861 -0.76485,2.146788 -1.12189,2.363164 -0.14484,0.0878 -0.65649,0.138305 -1.13637,0.112654 -0.4799,-0.02562 -0.89442,-0.08291 -0.92139,-0.127124 -0.0654,-0.107314 0.58564,-0.647003 1.97404,-1.635559 0.58053,-0.413337 1.08707,-0.718397 1.18856,-0.719336 z m -9.44439,2.197799 c -0.0506,0.04249 0.13715,0.06327 0.25683,0.247013 0.44662,0.686176 1.31994,2.380889 1.60817,3.12074 0.30239,0.775173 0.25778,0.864218 -0.42323,0.852144 -0.31264,-0.0053 -0.41964,-0.152734 -0.9772,-1.335319 -0.65098,-1.380722 -0.84257,-2.292845 -0.57981,-2.760038 0.0412,-0.07322 0.14627,-0.14921 0.11524,-0.12454 z m -43.82833,2.193148 c 0.0909,-0.01696 0.31216,0.06704 0.66301,0.255798 0.9582,0.515623 2.88895,0.986791 4.68808,1.1436 0.88302,0.07693 1.57109,0.185931 2.20245,0.390673 1.05224,0.341353 1.94663,0.947042 3.32383,2.105815 1.54056,1.296238 1.77115,1.54463 1.65365,1.786454 -0.12078,0.248696 -0.22904,0.248452 -0.9431,-0.0067 l -0.80667,-0.288354 -0.6351,1.62574 -0.6351,1.625224 0.26871,0.550871 c 0.14786,0.303044 0.211,0.580758 0.14056,0.617017 -0.0705,0.03622 -0.63697,-0.251754 -1.25935,-0.640271 -1.95442,-1.220064 -2.59688,-1.25583 -3.14709,-0.175184 -0.2305,0.452733 -0.2154,0.569108 0.15968,1.255221 0.22737,0.415918 0.79732,1.178906 1.26658,1.69602 1.16592,1.284817 1.21442,1.366 0.84336,1.390097 -0.85793,0.05574 -1.47136,-0.512062 -2.47323,-2.287716 l -0.90124,-1.597319 0.46664,-0.578259 c 0.48776,-0.604224 1.34662,-2.107743 1.27899,-2.23914 -0.0724,-0.14052 -1.66399,-0.285271 -2.64118,-0.240295 -0.79452,0.03657 -1.2357,0.189677 -2.45928,0.854211 l -1.49138,0.80977 0.32608,-1.018026 c 0.18906,-0.59101 0.43364,-1.094155 0.58291,-1.199927 0.14142,-0.100197 1.62702,-0.214443 3.30109,-0.253731 3.24644,-0.07622 3.97281,-0.242654 4.20336,-0.962215 0.16914,-0.527883 -0.27381,-1.351164 -0.82114,-1.526522 -0.23547,-0.07543 -0.86087,-0.161149 -1.38906,-0.189652 -0.72475,-0.03913 -1.38854,-0.20656 -2.70682,-0.683679 -1.57831,-0.571243 -1.81252,-0.69756 -2.42879,-1.312065 -0.57206,-0.570431 -0.78195,-0.879191 -0.63045,-0.907438 z m 41.32668,0.488342 c 0.25219,0.05388 0.77075,0.501372 1.1901,1.043864 0.48894,0.632523 0.48646,0.637133 -0.37827,0.613399 -0.52668,-0.01449 -0.6386,-0.08051 -0.78289,-0.461987 -0.21778,-0.576667 -0.2132,-1.057051 -0.11989,-1.193209 0.0242,-0.0092 0.0549,-0.0098 0.091,-0.0021 z m -28.88041,0.563273 0.7276,0.185519 c 0.12041,0.03074 0.23472,0.06575 0.34313,0.104903 0.75876,0.274893 1.22809,0.76397 1.47537,1.527555 0.31246,0.964884 0.49897,1.150995 1.61695,1.615405 l 0.96015,0.398942 -0.092,0.544153 c -0.0508,0.29944 -0.2111,1.054074 -0.35605,1.6769 -0.31177,1.339897 -0.35837,1.28697 1.6831,1.944068 1.70801,0.549655 2.51711,1.055306 3.28713,2.054655 0.96417,1.251322 1.98825,1.891669 4.41472,2.760038 2.01754,0.722017 2.11399,0.742684 2.67012,0.56534 0.55624,-0.177398 0.68097,-0.151244 3.47266,0.735356 l 2.89595,0.91984 1.10226,-0.145727 c 0.60624,-0.08011 2.02197,-0.359846 3.14606,-0.621668 1.82319,-0.424662 2.12395,-0.450524 2.78329,-0.239262 1.00045,0.320541 2.23891,1.216218 2.94349,2.128553 0.60253,0.780189 1.19033,2.264593 0.971,2.452046 -0.069,0.05891 -1.60986,0.110277 -3.4246,0.114205 -1.81473,0.0044 -4.1179,0.107486 -5.11803,0.230477 -1.76963,0.21754 -1.86413,0.211661 -3.51503,-0.226343 -1.61323,-0.427996 -1.74181,-0.437938 -2.6231,-0.203088 -0.73572,0.196071 -1.09536,0.200259 -1.74511,0.01964 -1.7075,-0.474642 -2.69429,-1.037928 -4.16564,-2.377633 -1.02796,-0.935985 -1.92809,-1.586843 -3.39049,-2.45153 -2.14448,-1.268006 -2.7455,-1.739756 -3.91862,-3.077331 -1.11326,-1.269298 -1.72168,-1.617684 -2.89027,-1.652096 -0.51929,-0.01528 -1.47841,0.07587 -2.13113,0.202572 -1.013,0.196653 -1.33622,0.188504 -2.20762,-0.05684 -0.58275,-0.164061 -0.97933,-0.337144 -0.92449,-0.403593 0.4673,-0.5661 0.60179,-0.821721 0.86403,-1.64021 0.16518,-0.515525 0.4021,-1.035961 0.52658,-1.156519 0.20637,-0.199833 0.26029,-0.15356 0.60875,0.523483 0.41838,0.812871 0.95327,1.113611 1.57561,0.8847 0.33718,-0.12403 0.33267,-0.159001 -0.12764,-0.955497 -0.45217,-0.782434 -0.46092,-0.842277 -0.16898,-1.128097 0.16961,-0.166056 0.42327,-0.515117 0.56379,-0.775146 0.33683,-0.62317 0.0525,-1.5112 -1.03146,-3.217375 z m 34.30333,19.576583 0.34262,0.7922 c 0.33622,0.777982 0.75232,2.309172 0.77928,2.866491 0.0236,0.487838 -0.20971,0.230717 -0.84543,-0.931209 -0.43315,-0.791651 -0.76382,-1.204786 -1.11724,-1.39578 -0.5863,-0.316889 -1.10946,-0.767007 -1.06247,-0.91364 0.0181,-0.05649 0.30204,-0.06105 0.63097,-0.01085 0.36826,0.05627 0.72766,-0.0046 0.93534,-0.15813 z" /><path
       style="fill:#070606;stroke-width:6.64287;filter:url(#filter1807)"
       d="m 296.62932,415.42121 c -4.56694,-1.84281 -8.3036,-11.9641 -8.3036,-22.49185 0,-26.04391 21.34337,-37.84801 42.89789,-23.72497 14.99205,9.8232 16.12611,9.07348 39.47955,-26.09934 13.2243,-19.91713 40.39396,-49.49873 44.13862,-49.49873 8.96818,0 -14.69429,32.57406 -51.70309,84.69646 -28.83249,40.60736 -41.01435,47.40589 -66.50937,37.11843 z m 311.71162,-50.83229 c -32.88296,-35.00234 -4.01685,-89.70457 43.28602,-82.02834 14.55269,2.36155 20.34035,0.9877 18.46132,-4.38218 -4.15766,-11.88281 -56.26224,-198.597073 -56.26224,-201.613387 0,-1.44942 8.73321,7.311296 19.40714,19.46832 12.77258,14.547197 32.05443,26.090387 56.40184,33.765177 39.17474,12.34874 50.56898,24.94265 50.14518,55.42463 l -0.25868,18.70457 -9.40504,-21.63989 c -5.22926,-12.03222 -17.10305,-24.5667 -26.74385,-28.23215 -22.19748,-8.4395 -56.33128,-8.52532 -56.33128,-0.1406 0,3.54785 10.46253,44.62131 23.24997,91.2744 12.78769,46.65306 23.25022,88.72543 23.25022,93.4942 0,4.76877 -7.33751,16.00777 -16.30544,24.97561 -20.92226,20.92249 -49.74675,21.3119 -68.89401,0.93072 z M 123.28143,356.0209 c -15.8404,-11.0951 -18.58586,-28.91305 -6.34145,-41.15742 9.66937,-9.66929 36.1752,-10.51082 41.85014,-1.32865 2.2571,3.65357 6.36957,6.64285 9.13689,6.64285 3.98068,0 38.48205,-45.91493 81.3342,-108.24123 2.31485,-3.36641 25.96075,-3.93641 54.06137,-1.3033 44.48687,4.1688 50.76583,6.47727 57.43572,21.11654 l 7.48892,16.43609 -44.94284,-4.20108 c -24.71872,-2.31059 -51.39477,-5.5309 -59.28033,-7.15642 -11.71537,-2.41478 -22.26727,7.88906 -57.69535,56.34043 -49.85348,68.17932 -62.15232,77.48737 -83.04727,62.85202 z m 827.83661,-12.98374 c -23.3667,-12.68075 -31.72049,-28.94812 -31.72049,-61.77016 0,-44.23566 41.91994,-81.3186 70.41624,-62.29116 26.93341,17.98403 23.28861,61.89791 -6.25489,75.35886 -12.30565,5.60684 -20.45104,4.81303 -36.66911,-3.57364 -23.31923,-12.05881 -26.04837,-6.54868 -11.08693,22.3835 20.20075,39.06422 76.10244,37.49621 106.99114,-3.00092 17.3012,-22.68303 17.4152,-23.50754 6.8836,-49.82828 -13.452,-33.62026 -13.565,-59.94098 -0.3918,-91.47604 22.4335,-53.70425 65.899,-79.338139 121.9258,-71.905952 29.3607,3.894832 32.4284,2.774031 54.0671,-19.752557 64.6851,-67.3390204 161.804,-69.867082 126.17,-3.284254 -9.4768,17.707649 -71.13,41.704993 -116.5127,45.350393 -32.1254,2.58048 -42.1885,6.2905 -51.8625,19.12026 -11.8883,15.76682 -11.7776,16.13094 11.625,38.20247 18.0438,17.01739 23.6221,27.59336 23.603,44.74956 -0.025,26.76827 -19.1982,60.52318 -43.3603,76.3547 -21.4845,14.07714 -70.0429,14.9176 -90.1598,1.56038 -14.0993,-9.36149 -16.4631,-8.21674 -45.7259,22.14294 -33.7015,34.96448 -54.14274,39.99936 -87.93736,21.65982 z m 214.19836,-52.82102 c 22.788,-11.78424 33.0813,-28.54571 33.0813,-53.87001 0,-21.05979 -23.3017,-49.02559 -40.8492,-49.02559 -11.8657,0 -78.0605,76.16805 -78.4973,90.32424 -0.6252,20.27741 55.5361,28.46187 86.2652,12.57136 z m -63.2403,-56.39556 c 29.7635,-38.67978 33.6242,-51.30484 8.8266,-28.86331 -10.4769,9.48143 -12.1479,9.60473 -12.1479,0.89581 0,-17.32736 26.5909,-45.104 43.1785,-45.104 14.4984,0 43.1785,-27.06889 43.1785,-40.75299 0,-11.45989 -56.4859,-5.68415 -79.0718,8.08514 -30.1845,18.40168 -44.6385,37.1194 -53.8653,69.75488 -6.2629,22.15214 -5.8029,31.58693 2.5107,51.48217 5.5981,13.39772 11.6506,24.35943 13.4503,24.35943 1.8001,0 17.0734,-17.93572 33.9415,-39.85716 z M 1300.598,88.928389 c 10.5405,-6.168278 23.5854,-17.904189 28.9881,-26.079839 8.7748,-13.277871 8.6739,-15.306027 -0.9465,-18.997766 -27.4112,-10.51865 -106.2581,27.949273 -115.6514,56.424106 -4.1855,12.68823 60.955,4.25177 87.61,-11.346501 z"
       id="path811"
       sodipodi:nodetypes="sssssssssssssccsssssssssscsssscsssssssssssssssssssscsssssssssscssssssssccssssss"
       transform="matrix(0.03982947,0,0,0.03982947,104.95073,24.286887)" /><path
       style="fill:#bb2030;stroke-width:0.264583"
       d="M 133.0789,99.609347 C 127.35798,98.828453 122.38702,97.245829 117.24653,94.568733 100.37893,85.784317 90.324814,67.045331 92.372216,48.207693 94.296427,30.503489 105.81876,15.561874 122.52177,9.1111661 c 11.87078,-4.5844999 25.86968,-3.8679507 37.39919,1.9143189 10.7295,5.381046 18.70727,14.186979 23.05744,25.451022 3.33315,8.630619 3.91307,18.901191 1.58566,28.082752 -2.8086,11.079872 -9.95529,21.167294 -19.57838,27.634523 -2.52912,1.699713 -8.22201,4.465773 -11.11857,5.402295 -6.75606,2.184389 -14.23101,2.908313 -20.78821,2.01327 z m 20.86604,-8.6269 c -3.75981,-5.980441 -7.06183,-12.232906 -10.95913,-18.281828 -1.26116,-2.017073 -2.48481,-4.17688 -3.48406,-5.804149 -1.28308,-2.087544 -3.76801,-6.176783 -5.52207,-9.087199 L 112.54253,22.487394 c -0.26343,-0.277371 -5.30899,5.275325 -6.85597,7.545075 -9.571106,14.042868 -9.575802,31.874549 -0.0121,46.033052 5.52024,7.22924 12.38583,12.751659 20.90295,15.592844 2.05567,0.666038 9.05954,2.652548 12.91695,2.518706 3.59785,-0.124836 9.47857,-0.240103 14.45058,-3.194624 z m 13.70588,-9.336605 c 4.17368,-4.179912 6.72203,-7.935418 8.8534,-13.047274 3.37549,-8.095719 4.02447,-17.142918 1.83679,-25.605969 -1.22935,-4.755777 -2.97806,-8.603072 -5.9704,-13.135329 -1.77442,-2.687564 -7.6117,-8.466985 -10.46333,-10.359612 -10.80307,-7.169984 -23.678,-8.933336 -35.79327,-4.902249 -3.70503,1.232768 -9.51482,4.244896 -9.84446,5.103935 -0.0769,0.200397 0.90109,2.070547 2.17332,4.15589 1.27222,2.085342 3.82373,6.291844 5.67002,9.347782 7.35956,12.181417 18.24358,30.148208 21.15705,34.925001 1.06507,1.74625 2.3424,3.862181 2.8385,4.702067 5.02044,7.217177 -0.89435,-1.369515 10.95793,15.591369 2.63096,-1.82768 4.98281,-3.213701 8.58445,-6.775611 z"
       id="path813"
       sodipodi:nodetypes="sssssssssscccccsccsccsssssssscccc" /></g></svg>
