<?xml version="1.0" encoding="UTF-8" standalone="no"?>
<!-- Created with Inkscape (http://www.inkscape.org/) -->

<svg
   width="159.63615mm"
   height="175.045mm"
   viewBox="0 0 159.63615 175.045"
   version="1.1"
   id="svg5"
   xml:space="preserve"
   inkscape:version="1.2.2 (b0a8486541, 2022-12-01)"
   sodipodi:docname="bunny.svg"
   xmlns:inkscape="http://www.inkscape.org/namespaces/inkscape"
   xmlns:sodipodi="http://sodipodi.sourceforge.net/DTD/sodipodi-0.dtd"
   xmlns="http://www.w3.org/2000/svg"
   xmlns:svg="http://www.w3.org/2000/svg"><sodipodi:namedview
     id="namedview7"
     pagecolor="#303030"
     bordercolor="#666666"
     borderopacity="1.0"
     inkscape:showpageshadow="2"
     inkscape:pageopacity="0"
     inkscape:pagecheckerboard="0"
     inkscape:deskcolor="#d1d1d1"
     inkscape:document-units="mm"
     showgrid="false"
     inkscape:zoom="0.40216478"
     inkscape:cx="170.32819"
     inkscape:cy="455.03736"
     inkscape:window-width="1920"
     inkscape:window-height="1002"
     inkscape:window-x="0"
     inkscape:window-y="42"
     inkscape:window-maximized="1"
     inkscape:current-layer="layer1" /><defs
     id="defs2" /><g
     inkscape:label="Layer 1"
     inkscape:groupmode="layer"
     id="layer1"
     transform="translate(-21.599573,-6.8027594)"><path
       style="fill:#ffffff;fill-opacity:1;stroke-width:0.264583"
       d="m 84.065716,181.69085 c -1.164167,-0.11189 -5.509948,-0.33768 -9.657292,-0.50175 -4.147344,-0.16407 -8.790782,-0.42302 -10.318751,-0.57544 -7.719872,-0.77007 -14.059522,-3.39582 -19.866161,-8.22816 l -1.630455,-1.35687 -1.123781,0.54597 c -1.812827,0.88074 -4.002646,1.20889 -5.83339,0.87416 -2.735916,-0.50024 -4.737881,-1.6945 -7.549651,-4.50368 -5.597385,-5.59223 -7.333723,-10.10165 -6.119458,-15.89277 1.021916,-4.87375 2.366063,-7.42278 4.60375,-8.73051 1.215578,-0.71041 1.606101,-0.80748 2.916378,-0.72495 1.478341,0.0931 1.51983,0.0768 1.818365,-0.71473 0.173323,-0.45954 0.393229,-3.50023 0.508254,-7.02772 0.131855,-4.04362 0.353711,-6.91157 0.63449,-8.20209 2.304452,-10.59175 7.167994,-19.08131 15.509878,-27.073298 16.869186,-16.16161 35.790419,-19.89568 54.427058,-10.74108 l 3.11202,1.52867 3.04271,-1.8008 c 1.67349,-0.99043 3.7691,-2.16531 4.65692,-2.61084 3.06362,-1.53738 3.56134,-2.27409 3.95144,-5.84877 0.25841,-2.36798 1.16574,-4.86891 3.05062,-8.4086 2.40077,-4.50848 2.24158,-5.4823 -1.6564,-10.13278 -9.68022,-11.548978 -14.30124,-21.857815 -14.35079,-32.01458 -0.0206,-4.23202 0.20779,-5.14325 2.54482,-10.15141 2.43855,-5.22573 2.66009,-5.97431 2.71521,-9.17493 0.0264,-1.5344297 0.13676,-2.9334197 0.24518,-3.1088497 0.33973,-0.5497 1.44831,-0.34908 2.25802,0.40862 0.44129,0.41294 2.51658,4.0458997 4.79872,8.4005197 4.31922,8.24164 6.27108,11.65621 7.083,12.391 0.48996,0.4434 0.51769,0.4375 0.67331,-0.14344 0.0893,-0.33324 0.16393,-1.29746 0.16592,-2.14271 0.007,-2.96385 0.96121,-7.73393 2.31255,-11.56006 0.91236,-2.58318 1.30464,-3.175 2.10451,-3.175 1.45011,0 1.95833,0.73199 2.44942,3.52791 0.41847,2.38248 1.47168,4.40899 3.76258,7.23966 5.72861,7.07835 7.47267,9.853561 9.50066,15.117843 2.07766,5.393177 2.89264,10.29978 2.89264,17.415197 0,3.9521 0.0809,5.11584 0.38568,5.55105 0.60795,0.86796 2.62259,1.58027 6.62397,2.34201 2.9437,0.5604 4.10934,0.91705 5.68854,1.74051 2.62295,1.36773 4.69979,3.03187 6.14333,4.92256 2.00308,2.62353 12.87445,19.95088 13.50074,21.51815 0.14541,0.36387 0.47386,1.45509 0.72991,2.42495 l 0.46555,1.76337 -1.03645,1.91011 c -1.49016,2.74625 -3.23298,4.845618 -5.58478,6.727288 -2.92373,2.33928 -5.6806,3.62045 -10.24774,4.76232 -6.06578,1.51657 -8.24177,2.49867 -9.26902,4.18343 -0.71598,1.17427 -0.65716,2.60186 0.25142,6.10114 1.00669,3.87717 1.34468,6.41467 1.34468,10.09522 0,2.9471 -0.36079,6.5102 -0.77168,7.62094 -0.20345,0.54998 -0.22185,0.54603 -0.90861,-0.19499 l -0.70096,-0.75635 -0.005,1.16312 c -0.003,0.63971 -0.1701,1.93702 -0.37238,2.8829 -0.82962,3.87934 -2.24998,6.35 -3.65056,6.35 -0.47263,0 -0.70802,0.21946 -0.94838,0.88417 -0.36574,1.01143 -1.47767,2.22676 -4.26041,4.65659 -2.5026,2.18522 -3.31083,3.77432 -3.14773,6.18897 0.13104,1.9401 0.6764,3.16605 2.15628,4.84729 1.01075,1.14827 1.9289,1.80718 6.56778,4.71336 4.55594,2.85422 6.32301,6.05107 4.79484,8.67448 -0.94943,1.62989 -2.24028,2.07278 -6.90387,2.36872 -5.30231,0.33647 -8.53042,0.15042 -11.73833,-0.67653 -5.80127,-1.49548 -11.11093,-4.56385 -17.6191,-10.1818 l -2.715,-2.34362 -7.41738,2.04382 c -4.07956,1.12411 -7.48641,2.11285 -7.57077,2.19721 -0.0844,0.0844 0.21884,1.49776 0.67379,3.14089 0.45495,1.64312 0.82706,3.38036 0.82691,3.86053 -7.9e-4,2.34083 -2.03211,4.0294 -6.290999,5.22929 -1.741747,0.49071 -9.170919,0.71733 -12.626976,0.38517 z"
       id="path364" /><ellipse
       style="fill:#ff0101;fill-opacity:1;fill-rule:evenodd;stroke-width:4;stroke-linecap:round;stroke-linejoin:round;stop-color:#000000"
       id="path1729"
       cx="150.75356"
       cy="80.143829"
       rx="5.1489286"
       ry="3.9871788" /></g></svg>
