<?xml version="1.0" encoding="UTF-8" standalone="no"?>
<!-- Created with Inkscape (http://www.inkscape.org/) -->

<svg
   width="80.28791mm"
   height="86.025887mm"
   viewBox="0 0 80.28791 86.025887"
   version="1.1"
   id="svg2519"
   xml:space="preserve"
   sodipodi:docname="Logo 1.svg"
   inkscape:version="1.2.2 (b0a8486541, 2022-12-01)"
   inkscape:export-filename="Logo 1.png"
   inkscape:export-xdpi="300"
   inkscape:export-ydpi="300"
   xmlns:inkscape="http://www.inkscape.org/namespaces/inkscape"
   xmlns:sodipodi="http://sodipodi.sourceforge.net/DTD/sodipodi-0.dtd"
   xmlns:xlink="http://www.w3.org/1999/xlink"
   xmlns="http://www.w3.org/2000/svg"
   xmlns:svg="http://www.w3.org/2000/svg"><sodipodi:namedview
     id="namedview2521"
     pagecolor="#000000"
     bordercolor="#666666"
     borderopacity="1.0"
     inkscape:showpageshadow="2"
     inkscape:pageopacity="0"
     inkscape:pagecheckerboard="0"
     inkscape:deskcolor="#d1d1d1"
     inkscape:document-units="mm"
     showgrid="false"
     inkscape:zoom="0.86018783"
     inkscape:cx="59.289376"
     inkscape:cy="281.3339"
     inkscape:window-width="1920"
     inkscape:window-height="1122"
     inkscape:window-x="0"
     inkscape:window-y="42"
     inkscape:window-maximized="1"
     inkscape:current-layer="layer1"
     showguides="false" /><defs
     id="defs2516"><linearGradient
       inkscape:collect="always"
       id="linearGradient1553"><stop
         style="stop-color:#ffffff;stop-opacity:1;"
         offset="0"
         id="stop1549" /><stop
         style="stop-color:#d1d1d1;stop-opacity:1;"
         offset="1"
         id="stop1551" /></linearGradient><meshgradient
       inkscape:collect="always"
       id="meshgradient11177"
       gradientUnits="userSpaceOnUse"
       x="78.829521"
       y="41.809097"
       gradientTransform="matrix(1,0,0,0.89702375,0,4.3053439)"><meshrow
         id="meshrow36757"><meshpatch
           id="meshpatch36759"><stop
             path="c 5.35253,0  10.7051,0  16.0576,0"
             style="stop-color:#2b0000;stop-opacity:1"
             id="stop36761" /><stop
             path="c 0,4.94243  -2.32464,12.3191  -2.32465,17.2616"
             style="stop-color:#550000;stop-opacity:1"
             id="stop36763" /><stop
             path="c -5.35253,-5.67714e-05  -8.38045,-2.43438  -13.7331,-2.43438"
             style="stop-color:#ff0000;stop-opacity:1"
             id="stop36765" /><stop
             path="c 0,-4.94243  0,-9.88487  0.00015,-14.8272"
             style="stop-color:#2b0000;stop-opacity:1"
             id="stop36767" /></meshpatch><meshpatch
           id="meshpatch36769"><stop
             path="c 5.35253,0  10.7051,0  16.0576,0"
             id="stop36771" /><stop
             path="c 0,4.94243  -3.873,7.62325  -3.87301,12.5657"
             style="stop-color:#550000;stop-opacity:1"
             id="stop36773" /><stop
             path="c -5.35253,0.000189443  -9.15673,4.69615  -14.5092,4.6959"
             style="stop-color:#ff0000;stop-opacity:1"
             id="stop36775" /></meshpatch><meshpatch
           id="meshpatch36777"><stop
             path="c 5.35253,0  10.7051,0  16.0576,0"
             id="stop36779" /><stop
             path="c 0,4.94243  -0.19327,4.44042  -0.193268,9.38287"
             style="stop-color:#550000;stop-opacity:1"
             id="stop36781" /><stop
             path="c -5.35253,0.000144536  -14.3847,3.18294  -19.7373,3.18283"
             style="stop-color:#ff0000;stop-opacity:1"
             id="stop36783" /></meshpatch><meshpatch
           id="meshpatch36785"><stop
             path="c 5.35253,0  10.7051,0  16.0576,0"
             id="stop36787" /><stop
             path="c 0,4.94243  0,9.88487  0,14.8273"
             style="stop-color:#800000;stop-opacity:1"
             id="stop36789" /><stop
             path="c -5.35253,0  -10.8983,-5.44445  -16.2509,-5.44443"
             style="stop-color:#ff0000;stop-opacity:1"
             id="stop36791" /></meshpatch><meshpatch
           id="meshpatch36793"><stop
             path="c 5.35253,0  10.7051,0  16.0576,0"
             id="stop36795" /><stop
             path="c 0,4.94243  0,9.88487  0,14.8273"
             style="stop-color:#800000;stop-opacity:1"
             id="stop36797" /><stop
             path="c -5.35253,0  -10.7051,0  -16.0576,0"
             style="stop-color:#800000;stop-opacity:1"
             id="stop36799" /></meshpatch></meshrow><meshrow
         id="meshrow36801"><meshpatch
           id="meshpatch36803"><stop
             path="c -1.03649e-05,4.94237  2.32465,7.45049  2.32465,12.393"
             id="stop36805" /><stop
             path="c -5.35253,0  -10.7051,0  -16.0576,0"
             style="stop-color:#ff0000;stop-opacity:1"
             id="stop36807" /><stop
             path="c 0,-4.94243  0,-9.88487  -0.00015,-14.8274"
             style="stop-color:#2b0000;stop-opacity:1"
             id="stop36809" /></meshpatch><meshpatch
           id="meshpatch36811"><stop
             path="c 6.19848e-06,4.94262  3.87301,12.1465  3.87301,17.0889"
             id="stop36813" /><stop
             path="c -5.35253,0  -10.7051,0  -16.0576,0"
             style="stop-color:#ff5555;stop-opacity:1"
             id="stop36815" /></meshpatch><meshpatch
           id="meshpatch36817"><stop
             path="c 8.33271e-06,4.94256  -2.01954,9.7912  -2.01952,14.7338"
             id="stop36819" /><stop
             path="c -5.35253,0.00030939  -8.4923,5.53837  -13.8448,5.53793"
             style="stop-color:#ffaaaa;stop-opacity:1"
             id="stop36821" /></meshpatch><meshpatch
           id="meshpatch36823"><stop
             path="c 0,4.94243  0,9.88487  0,14.8273"
             id="stop36825" /><stop
             path="c -5.35253,0  -12.9178,-5.53799  -18.2704,-5.53793"
             style="stop-color:#ffaaaa;stop-opacity:1"
             id="stop36827" /></meshpatch><meshpatch
           id="meshpatch36829"><stop
             path="c 0,4.94243  0,9.88487  0,14.8273"
             id="stop36831" /><stop
             path="c -5.35253,0  -10.7051,0  -16.0576,0"
             style="stop-color:#ff8080;stop-opacity:1"
             id="stop36833" /></meshpatch></meshrow><meshrow
         id="meshrow36835"><meshpatch
           id="meshpatch36837"><stop
             path="c 0,4.94243  -2.69686,12.2031  -2.69688,17.1456"
             id="stop36839" /><stop
             path="c -5.35253,-5.14665e-05  -8.00822,-2.31838  -13.3607,-2.31838"
             style="stop-color:#ff0000;stop-opacity:1"
             id="stop36841" /><stop
             path="c 0,-4.94243  0,-9.88487  -4e-05,-14.8272"
             style="stop-color:#2b0000;stop-opacity:1"
             id="stop36843" /></meshpatch><meshpatch
           id="meshpatch36845"><stop
             path="c 0,4.94243  0,9.88487  0,14.8273"
             id="stop36847" /><stop
             path="c -5.35253,0  -13.4021,2.3183  -18.7545,2.31831"
             style="stop-color:#ffaaaa;stop-opacity:1"
             id="stop36849" /></meshpatch><meshpatch
           id="meshpatch36851"><stop
             path="c 3.32374e-05,4.94274  2.2128,15.4232  2.2128,20.3653"
             id="stop36853" /><stop
             path="c -5.35253,0  -10.7051,0  -16.0576,-7e-05"
             style="stop-color:#ffaaaa;stop-opacity:1"
             id="stop36855" /></meshpatch><meshpatch
           id="meshpatch36857"><stop
             path="c 0,4.94243  0,9.88487  0,14.8273"
             id="stop36859" /><stop
             path="c -5.35253,0  -10.7051,0  -16.0576,7e-05"
             style="stop-color:#ffaaaa;stop-opacity:1"
             id="stop36861" /></meshpatch><meshpatch
           id="meshpatch36863"><stop
             path="c 0,4.94243  0,9.88487  0,14.8273"
             id="stop36865" /><stop
             path="c -5.35253,0  -10.7051,0  -16.0576,0"
             style="stop-color:#ff8080;stop-opacity:1"
             id="stop36867" /></meshpatch></meshrow><meshrow
         id="meshrow36869"><meshpatch
           id="meshpatch36871"><stop
             path="c 2.31486e-05,4.94235  2.69688,7.56648  2.69688,12.509"
             id="stop36873" /><stop
             path="c -5.35253,0  -10.7051,0  -16.0576,0"
             style="stop-color:#ff0000;stop-opacity:1"
             id="stop36875" /><stop
             path="c 0,-4.94243  0,-9.88487  4e-05,-14.8274"
             style="stop-color:#2b0000;stop-opacity:1"
             id="stop36877" /></meshpatch><meshpatch
           id="meshpatch36879"><stop
             path="c 0,4.94243  -3.02207,11.38  -3.02207,16.3224"
             id="stop36881" /><stop
             path="c -5.35253,-0.000102675  -7.68303,-1.49524  -13.0355,-1.4951"
             style="stop-color:#ffaaaa;stop-opacity:1"
             id="stop36883" /></meshpatch><meshpatch
           id="meshpatch36885"><stop
             path="c 0,4.94243  0,9.88487  0,14.8273"
             id="stop36887" /><stop
             path="c -5.35253,0  -13.7272,1.49514  -19.0797,1.49503"
             style="stop-color:#ffaaaa;stop-opacity:1"
             id="stop36889" /></meshpatch><meshpatch
           id="meshpatch36891"><stop
             path="c 0,4.94243  0,9.88487  0,14.8273"
             id="stop36893" /><stop
             path="c -5.35253,0  -10.7051,0  -16.0576,7e-05"
             style="stop-color:#ffaaaa;stop-opacity:1"
             id="stop36895" /></meshpatch><meshpatch
           id="meshpatch36897"><stop
             path="c 0,4.94243  0,9.88487  0,14.8273"
             id="stop36899" /><stop
             path="c -5.35253,0  -10.7051,0  -16.0576,0"
             style="stop-color:#ff2a2a;stop-opacity:1"
             id="stop36901" /></meshpatch></meshrow><meshrow
         id="meshrow36903"><meshpatch
           id="meshpatch36905"><stop
             path="c 0,4.94243  0,9.88487  0,14.8273"
             id="stop36907" /><stop
             path="c -5.35253,0  -10.7051,0  -16.0576,0"
             style="stop-color:#800000;stop-opacity:1"
             id="stop36909" /><stop
             path="c 0,-4.94243  0,-9.88487  0,-14.8273"
             style="stop-color:#800000;stop-opacity:1"
             id="stop36911" /></meshpatch><meshpatch
           id="meshpatch36913"><stop
             path="c 4.6591e-06,4.94233  3.02207,8.38963  3.02207,13.3322"
             id="stop36915" /><stop
             path="c -5.35253,0  -10.7051,0  -16.0576,0"
             style="stop-color:#ff2a2a;stop-opacity:1"
             id="stop36917" /></meshpatch><meshpatch
           id="meshpatch36919"><stop
             path="c 0,4.94243  0,9.88487  0,14.8273"
             id="stop36921" /><stop
             path="c -5.35253,0  -10.7051,0  -16.0576,-7e-05"
             style="stop-color:#ff2a2a;stop-opacity:1"
             id="stop36923" /></meshpatch><meshpatch
           id="meshpatch36925"><stop
             path="c 0,4.94243  0,9.88487  0,14.8273"
             id="stop36927" /><stop
             path="c -5.35253,0  -10.7051,0  -16.0576,7e-05"
             style="stop-color:#800000;stop-opacity:1"
             id="stop36929" /></meshpatch><meshpatch
           id="meshpatch36931"><stop
             path="c 0,4.94243  0,9.88487  0,14.8273"
             id="stop36933" /><stop
             path="c -5.35253,0  -10.7051,0  -16.0576,0"
             style="stop-color:#800000;stop-opacity:1"
             id="stop36935" /></meshpatch></meshrow></meshgradient><linearGradient
       inkscape:collect="always"
       xlink:href="#linearGradient1553"
       id="linearGradient1555"
       x1="113.815"
       y1="66.405197"
       x2="113.3838"
       y2="115.84898"
       gradientUnits="userSpaceOnUse"
       gradientTransform="matrix(0.80328319,0,0,0.80328319,17.306764,15.174151)" /></defs><g
     inkscape:label="Layer 1"
     inkscape:groupmode="layer"
     id="layer1"
     transform="translate(-78.829521,-41.809097)"><rect
       style="opacity:1;fill:#1a1a1a;stroke:none;stroke-width:2.42747;stroke-linecap:round;stroke-linejoin:round;stroke-dasharray:none;stop-color:#000000"
       id="rect2846"
       width="80.288002"
       height="86.026001"
       x="78.829521"
       y="41.809097" /><rect
       style="opacity:1;fill:url(#meshgradient11177);fill-opacity:1;stroke:none;stroke-width:1.42067;stroke-linecap:round;stroke-linejoin:round;stop-color:#000000"
       id="rect8233"
       width="80.28791"
       height="66.502213"
       x="78.829521"
       y="41.809097" /><path
       style="fill:none;stroke:#000000;stroke-width:3;stroke-linecap:butt;stroke-linejoin:miter;stroke-dasharray:none;stroke-opacity:1"
       d="m 130.94083,92.374585 h 12.389"
       id="path2475" /><path
       id="rect36989"
       style="opacity:1;stroke-width:1.5;stroke-linecap:round;stroke-linejoin:round;stop-color:#000000"
       d="m 82.45401,46.299667 h 63.19515 l -5.29167,20.168475 H 82.45401 Z"
       sodipodi:nodetypes="ccccc" /><g
       aria-label="ACTION"
       id="text37098"
       style="font-size:17.6389px;line-height:1.25;font-family:'Liberation Sans';-inkscape-font-specification:'Liberation Sans';fill:#ffffff;stroke-width:0.264583"
       transform="matrix(0.79321379,0,0,1,20.978165,24.767509)"><path
         d="M 90.137604,37.872845 89.06101,34.772257 h -4.625043 l -1.076593,3.100588 h -2.54076 L 85.245565,25.737488 H 88.2428 l 4.409725,12.135357 z m -3.393422,-10.266392 -0.05168,0.189481 q -0.08613,0.310058 -0.206706,0.706245 -0.120579,0.396186 -1.481392,4.358048 h 3.488161 L 87.295398,29.372066 86.92505,28.200733 Z"
         style="font-weight:bold;fill:#ffffff"
         id="path37150" /><path
         d="m 99.964745,36.046943 q 2.299605,0 3.195325,-2.308216 l 2.21348,0.835437 q -0.71486,1.756999 -2.10151,2.618274 -1.37804,0.852662 -3.307295,0.852662 -2.928333,0 -4.530304,-1.653647 -1.593358,-1.66226 -1.593358,-4.64227 0,-2.988622 1.541682,-4.590592 1.541681,-1.601971 4.470014,-1.601971 2.135961,0 3.479551,0.861274 1.34359,0.852662 1.88619,2.514922 l -2.23931,0.611505 q -0.28423,-0.912951 -1.11966,-1.446941 -0.82682,-0.542603 -1.955094,-0.542603 -1.722549,0 -2.618275,1.06798 -0.887113,1.06798 -0.887113,3.126426 0,2.092897 0.912951,3.195329 0.921564,1.102431 2.652726,1.102431 z"
         style="font-weight:bold;fill:#ffffff"
         id="path37152" /><path
         d="m 112.51351,27.701193 v 10.171652 h -2.54076 V 27.701193 h -3.9188 v -1.963705 h 10.38697 v 1.963705 z"
         style="font-weight:bold;fill:#ffffff"
         id="path37154" /><path
         d="M 117.81035,37.872845 V 25.737488 h 2.54076 v 12.135357 z"
         style="font-weight:bold;fill:#ffffff"
         id="path37156" /><path
         d="m 134.51046,31.749183 q 0,1.894804 -0.74931,3.333132 -0.74931,1.438329 -2.14457,2.204863 -1.39527,0.757922 -3.25562,0.757922 -2.85943,0 -4.48724,-1.679486 -1.61919,-1.688098 -1.61919,-4.616431 0,-2.91972 1.61919,-4.556141 1.6192,-1.636422 4.50447,-1.636422 2.88527,0 4.50446,1.653647 1.62781,1.653647 1.62781,4.538916 z m -2.59243,0 q 0,-1.963705 -0.93018,-3.074749 -0.93018,-1.119657 -2.60966,-1.119657 -1.70533,0 -2.6355,1.111044 -0.93018,1.102431 -0.93018,3.083362 0,1.998157 0.9474,3.152265 0.95602,1.145495 2.60105,1.145495 1.70533,0 2.62689,-1.119657 0.93018,-1.119657 0.93018,-3.178103 z"
         style="font-weight:bold;fill:#ffffff"
         id="path37158" /><path
         d="m 144.00581,37.872845 -2.32257,-9.344828 -2.9956,9.344828 h -2.25653 l 3.33559,-12.135357 h 3.17994 l 2.49256,9.422342 3.37227,-9.422342 h 2.25654 l -4.26716,12.135357 z"
         style="font-weight:bold;fill:#ffffff"
         id="path37160"
         sodipodi:nodetypes="ccccccccccc" /></g><g
       aria-label="10"
       id="text37165"
       style="font-size:77.611px;line-height:1.25;font-family:'Liberation Sans';-inkscape-font-specification:'Liberation Sans';stroke-width:0.264583"
       transform="matrix(0.75784811,0,0,0.57774693,49.396994,77.826338)" /><path
       style="fill:none;stroke:#000000;stroke-width:3;stroke-linecap:butt;stroke-linejoin:miter;stroke-dasharray:none;stroke-opacity:1"
       d="M 99.291236,91.210454 H 111.68024"
       id="path2461" /><path
       style="fill:none;stroke:#000000;stroke-width:3;stroke-linecap:butt;stroke-linejoin:miter;stroke-dasharray:none;stroke-opacity:1"
       d="M 91.751085,74.21089 H 104.14009"
       id="path2463" /><path
       style="fill:none;stroke:#000000;stroke-width:3;stroke-linecap:butt;stroke-linejoin:miter;stroke-dasharray:none;stroke-opacity:1"
       d="m 116.23218,80.751372 h 12.389"
       id="path2465" /><path
       style="fill:none;stroke:#000000;stroke-width:3;stroke-linecap:butt;stroke-linejoin:miter;stroke-dasharray:none;stroke-opacity:1"
       d="m 120.96922,77.881844 h 12.389"
       id="path2467" /><path
       style="fill:none;stroke:#000000;stroke-width:3;stroke-linecap:butt;stroke-linejoin:miter;stroke-dasharray:none;stroke-opacity:1"
       d="m 101.38663,101.91757 h 12.389"
       id="path2469" /><path
       style="fill:none;stroke:#000000;stroke-width:3;stroke-linecap:butt;stroke-linejoin:miter;stroke-dasharray:none;stroke-opacity:1"
       d="M 89.177547,100.70943 H 101.56655"
       id="path2471" /><path
       style="fill:none;stroke:#000000;stroke-width:3;stroke-linecap:butt;stroke-linejoin:miter;stroke-dasharray:none;stroke-opacity:1"
       d="m 116.47326,95.34643 h 12.389"
       id="path2473" /><path
       id="path807"
       style="color:#000000;fill:url(#linearGradient1555);fill-opacity:1;stroke-width:1.04353;stroke-linecap:round;stroke-linejoin:round;-inkscape-stroke:none"
       d="m 116.2219,69.359979 c -8.52233,0 -15.41946,7.616129 -15.41946,16.864591 0,9.24846 6.89713,16.8646 15.41946,16.8646 8.52232,0 15.42142,-7.61614 15.42142,-16.8646 0,-9.248462 -6.8991,-16.864591 -15.42142,-16.864591 z m 0,5.052421 c 5.90171,0 10.69744,5.223049 10.69744,11.81217 0,6.58912 -4.79573,11.81217 -10.69744,11.81217 -5.90172,0 -10.69548,-5.22305 -10.69548,-11.81217 0,-6.589121 4.79376,-11.81217 10.69548,-11.81217 z M 94.188025,81.208347 H 87.978061 V 77.17211 c 3.491725,-0.330149 6.700283,-2.441328 7.774837,-5.415083 l 0.28979,-0.56708 h 3.477499 v 37.121363 h -5.332162 z" /><g
       id="g2534"
       transform="translate(0.52916663,-5.8208336)"
       style="fill:#ffffff"><path
         d="m 103.13035,126.51602 h -1.3746 l -1.47106,-5.39587 q -0.14469,-0.50643 -0.422027,-1.8147 -0.15675,0.69935 -0.26527,1.1696 -0.10852,0.47026 -1.645889,6.04097 h -1.37459 l -2.501996,-8.49473 h 1.199752 l 1.525313,5.39587 q 0.271301,1.01286 0.5004,2.086 0.144693,-0.66318 0.331589,-1.44694 0.192925,-0.78375 1.676036,-6.03493 h 1.103292 l 1.47709,5.28735 q 0.33762,1.29622 0.53055,2.19452 l 0.0543,-0.21101 q 0.16278,-0.69332 0.26527,-1.12741 0.10249,-0.44011 1.69412,-6.14345 h 1.19976 z"
         style="font-size:12.3472px;line-height:0;font-family:'Liberation Sans';-inkscape-font-specification:'Liberation Sans';text-align:end;text-anchor:end;fill:#ffffff;stroke-width:0.264583"
         id="path2493" /><path
         d="m 113.25891,120.57755 q 0,1.20578 -0.78978,1.91719 -0.78376,0.71141 -2.13424,0.71141 h -2.49596 v 3.30987 h -1.15153 v -8.49473 h 3.57515 q 1.42885,0 2.21261,0.66921 0.78375,0.66921 0.78375,1.88705 z m -1.15755,0.0121 q 0,-1.64589 -1.97748,-1.64589 h -2.28495 v 3.35207 h 2.33318 q 1.92925,0 1.92925,-1.70618 z"
         style="font-size:12.3472px;line-height:0;font-family:'Liberation Sans';-inkscape-font-specification:'Liberation Sans';text-align:end;text-anchor:end;fill:#ffffff;stroke-width:0.264583"
         id="path2495" /><path
         d="m 114.53101,122.22947 q 0,-2.06792 1.10932,-3.20135 1.10932,-1.13344 3.11695,-1.13344 1.41076,0 2.29098,0.47629 0.88022,0.47628 1.3565,1.52531 l -1.09726,0.32556 q -0.36173,-0.72347 -1.0008,-1.05506 -0.63303,-0.33159 -1.57957,-0.33159 -1.47105,0 -2.24878,0.89228 -0.77773,0.88625 -0.77773,2.502 0,1.60971 0.82596,2.54419 0.82596,0.92846 2.28496,0.92846 0.83198,0 1.54942,-0.25322 0.72347,-0.25321 1.16961,-0.68729 v -1.53135 h -2.53817 v -0.96462 h 3.59926 v 2.93005 q -0.67524,0.68729 -1.65795,1.06711 -0.97668,0.3738 -2.12217,0.3738 -1.33239,0 -2.29702,-0.53055 -0.96462,-0.53054 -1.47708,-1.52531 -0.50643,-1.0008 -0.50643,-2.35127 z"
         style="font-size:12.3472px;line-height:0;font-family:'Liberation Sans';-inkscape-font-specification:'Liberation Sans';text-align:end;text-anchor:end;fill:#ffffff;stroke-width:0.264583"
         id="path2497" /><path
         d="m 94.954208,130.79495 q 0,0.75103 -0.292834,1.31603 -0.292833,0.56155 -0.830268,0.86127 -0.537435,0.29972 -1.240235,0.29972 h -1.815567 v -4.85414 h 1.605416 q 1.233345,0 1.901694,0.62012 0.671794,0.61667 0.671794,1.757 z m -0.661459,0 q 0,-0.90262 -0.496094,-1.3746 -0.492649,-0.47542 -1.429716,-0.47542 h -0.933621 v 3.79994 h 1.081761 q 0.53399,0 0.937066,-0.23426 0.406522,-0.23427 0.623563,-0.67524 0.217041,-0.44098 0.217041,-1.04042 z"
         style="font-size:7.05556px;line-height:0;font-family:'Liberation Sans';-inkscape-font-specification:'Liberation Sans';text-align:end;text-anchor:end;fill:#ffffff;stroke-width:0.264583"
         id="path2499" /><path
         d="m 99.301921,133.27197 -1.260906,-2.01538 h -1.512397 v 2.01538 h -0.658014 v -4.85414 h 2.2841 q 0.819933,0 1.264351,0.36863 0.447858,0.36518 0.447858,1.01974 0,0.54088 -0.31695,0.90951 -0.313499,0.36863 -0.868159,0.46509 l 1.378036,2.09117 z m -0.09646,-3.45888 q 0,-0.42374 -0.289388,-0.64423 -0.285943,-0.22393 -0.826823,-0.22393 h -1.560629 v 1.79145 h 1.58819 q 0.520209,0 0.802707,-0.24116 0.285943,-0.2446 0.285943,-0.68213 z"
         style="font-size:7.05556px;line-height:0;font-family:'Liberation Sans';-inkscape-font-specification:'Liberation Sans';text-align:end;text-anchor:end;fill:#ffffff;stroke-width:0.264583"
         id="path2501" /><path
         d="m 104.72108,131.90427 q 0,0.64768 -0.47198,1.00941 -0.47198,0.35829 -1.31259,0.35829 h -1.9706 v -4.85414 h 1.7639 q 1.70877,0 1.70877,1.17822 0,0.43064 -0.24116,0.72347 -0.24116,0.29284 -0.68213,0.39275 0.57878,0.0689 0.89228,0.38929 0.31351,0.31695 0.31351,0.80271 z m -0.94396,-2.22898 q 0,-0.39274 -0.26872,-0.56155 -0.26872,-0.16881 -0.77859,-0.16881 h -1.10588 v 1.53651 h 1.10588 q 0.5271,0 0.78548,-0.19637 0.26183,-0.19981 0.26183,-0.60978 z m 0.27905,2.1773 q 0,-0.85783 -1.20578,-0.85783 h -1.22646 v 1.75011 h 1.27813 q 0.6029,0 0.8785,-0.22393 0.27561,-0.22393 0.27561,-0.66835 z"
         style="font-size:7.05556px;line-height:0;font-family:'Liberation Sans';-inkscape-font-specification:'Liberation Sans';text-align:end;text-anchor:end;fill:#ffffff;stroke-width:0.264583"
         id="path2503" /><path
         d="m 107.61151,133.34087 q -0.596,0 -1.04042,-0.21704 -0.44442,-0.21704 -0.68902,-0.63045 -0.2446,-0.41341 -0.2446,-0.9853 v -3.09025 h 0.65801 v 3.03513 q 0,0.66491 0.33762,1.00941 0.33762,0.34451 0.97497,0.34451 0.65457,0 1.0163,-0.35484 0.36518,-0.35829 0.36518,-1.04386 v -2.99035 h 0.65457 v 3.02824 q 0,0.58911 -0.25149,1.0163 -0.24805,0.4272 -0.70625,0.65457 -0.45475,0.22393 -1.07487,0.22393 z"
         style="font-size:7.05556px;line-height:0;font-family:'Liberation Sans';-inkscape-font-specification:'Liberation Sans';text-align:end;text-anchor:end;fill:#ffffff;stroke-width:0.264583"
         id="path2505" /><path
         d="m 111.42524,128.95527 v 1.80523 h 2.70784 v 0.54432 h -2.70784 v 1.96715 h -0.65802 v -4.85414 h 3.44855 v 0.53744 z"
         style="font-size:7.05556px;line-height:0;font-family:'Liberation Sans';-inkscape-font-specification:'Liberation Sans';text-align:end;text-anchor:end;fill:#ffffff;stroke-width:0.264583"
         id="path2507" /><path
         d="m 115.73505,128.95527 v 1.80523 h 2.70785 v 0.54432 h -2.70785 v 1.96715 h -0.65801 v -4.85414 h 3.44854 v 0.53744 z"
         style="font-size:7.05556px;line-height:0;font-family:'Liberation Sans';-inkscape-font-specification:'Liberation Sans';text-align:end;text-anchor:end;fill:#ffffff;stroke-width:0.264583"
         id="path2509" /><path
         d="m 121.48492,131.26004 v 2.01193 h -0.65457 v -2.01193 l -1.86724,-2.84221 h 0.72347 l 1.47795,2.31166 1.47105,-2.31166 h 0.72347 z"
         style="font-size:7.05556px;line-height:0;font-family:'Liberation Sans';-inkscape-font-specification:'Liberation Sans';text-align:end;text-anchor:end;fill:#ffffff;stroke-width:0.264583"
         id="path2511" /></g><text
       xml:space="preserve"
       style="font-size:6.17489px;line-height:0.85;font-family:'Liberation Sans';-inkscape-font-specification:'Liberation Sans';stroke-width:0.231558"
       x="111.16067"
       y="140.39813"
       id="text2538"
       transform="scale(1.1426211,0.87518076)"><tspan
         sodipodi:role="line"
         id="tspan2536"
         style="font-style:normal;font-variant:normal;font-weight:normal;font-stretch:normal;font-size:6.17489px;font-family:'Liberation Sans Narrow';-inkscape-font-specification:'Liberation Sans Narrow';fill:#ffffff;stroke-width:0.231558"
         x="111.16067"
         y="140.39813">SLAYER</tspan><tspan
         sodipodi:role="line"
         style="font-style:normal;font-variant:normal;font-weight:normal;font-stretch:normal;font-size:6.17489px;font-family:'Liberation Sans Narrow';-inkscape-font-specification:'Liberation Sans Narrow';fill:#ffffff;stroke-width:0.231558"
         x="111.16067"
         y="145.64679"
         id="tspan2540">NETWORK</tspan></text><path
       style="fill:none;stroke:#ff0000;stroke-width:0.264583px;stroke-linecap:butt;stroke-linejoin:miter;stroke-opacity:1"
       d="m 157.98455,109.72094 -12.89137,0.74248 -5.31407,1.229 -9.89302,1.585 -3.60411,0.57805 9.13417,1.21616 8.10753,-0.0703 11.60275,0.28631 2.73669,0.72968 z"
       id="path2605" /><path
       style="fill:none;stroke:#ff0000;stroke-width:0.264583px;stroke-linecap:butt;stroke-linejoin:miter;stroke-opacity:1"
       d="m 135.2828,113.11497 6.07448,-0.64147"
       id="path2607" /><path
       style="fill:none;stroke:#ff0000;stroke-width:0.264583px;stroke-linecap:butt;stroke-linejoin:miter;stroke-opacity:1"
       d="m 137.18395,114.08351 6.36021,-0.23628"
       id="path2609" /><path
       style="fill:none;stroke:#ff0000;stroke-width:0.264583px;stroke-linecap:butt;stroke-linejoin:miter;stroke-opacity:1"
       d="m 147.92362,113.36625 8.23006,0.26106"
       id="path2611"
       sodipodi:nodetypes="cc" /><path
       style="fill:none;stroke:#ff0000;stroke-width:0.264583px;stroke-linecap:butt;stroke-linejoin:miter;stroke-opacity:1"
       d="m 145.8785,112.29983 4.82314,-0.13104"
       id="path2613" /><path
       id="path2782"
       style="fill:#ffffff;stroke-width:0.0378344"
       d="m 88.908455,112.06152 c -0.04242,2.8e-4 -0.08173,0.005 -0.116757,0.0134 -0.05236,0.0131 -0.173273,0.0915 -0.268681,0.1741 l -0.173509,0.15008 -0.197448,-0.0789 c -0.17005,-0.0679 -0.247463,-0.0758 -0.556948,-0.0565 -0.537357,0.0334 -0.826491,0.14057 -1.081163,0.40059 -0.22288,0.22755 -0.288223,0.3703 -0.355957,0.77723 -0.0353,0.21208 -0.03378,0.31383 0.0077,0.51077 0.03514,0.16696 0.04165,0.30666 0.02023,0.43509 -0.01735,0.10405 -0.02367,0.30835 -0.01403,0.45401 0.01379,0.20868 1.04e-4,0.31299 -0.06466,0.49185 -0.07599,0.20986 -0.09429,0.23082 -0.241494,0.27741 -0.173737,0.055 -0.229049,0.14653 -0.163086,0.26979 0.08474,0.15834 0.223367,0.20954 0.56663,0.20927 0.28223,-2.9e-4 0.338694,-0.0118 0.444848,-0.0913 l 0.121559,-0.091 0.143284,0.0995 c 0.356696,0.24772 0.458593,0.40538 0.339181,0.52481 -0.05935,0.0593 -0.520346,0.0584 -0.675108,-0.001 -0.121347,-0.0469 -0.353634,0.006 -0.466725,0.10692 -0.04162,0.037 -0.118232,0.0889 -0.170254,0.11513 -0.05202,0.0263 -0.143288,0.10579 -0.202842,0.17676 -0.05955,0.071 -0.179831,0.16262 -0.267281,0.20373 -0.08745,0.0411 -0.273625,0.17652 -0.413739,0.3009 -0.140115,0.12438 -0.27391,0.22612 -0.297281,0.22612 -0.03555,0 -0.405056,0.16179 -0.593455,0.25982 -0.02921,0.0152 -0.07301,0.0949 -0.09739,0.17712 -0.07603,0.25647 -0.12129,0.31113 -0.279917,0.33793 -0.0825,0.0139 -0.185848,0.0655 -0.234101,0.1169 -0.04751,0.0506 -0.121739,0.092 -0.164933,0.0921 -0.04319,8e-5 -0.130783,0.032 -0.194641,0.0709 -0.06386,0.0389 -0.157498,0.0838 -0.20809,0.0996 -0.05059,0.0158 -0.141123,0.07 -0.201217,0.12023 -0.139095,0.1163 -0.253638,0.10023 -0.32115,-0.045 -0.02902,-0.0624 -0.122876,-0.22417 -0.208533,-0.35943 -0.08566,-0.13526 -0.172754,-0.27314 -0.19353,-0.30644 -0.06612,-0.10599 -0.250703,-0.3864 -0.401992,-0.6106 -0.08058,-0.11941 -0.146534,-0.23728 -0.146534,-0.26188 0,-0.0246 -0.02422,-0.0716 -0.05387,-0.10442 -0.06645,-0.0736 -0.334424,-0.45848 -0.467833,-0.67193 -0.181813,-0.2909 -0.337558,-0.30671 -0.582369,-0.059 -0.212496,0.21504 -0.295296,0.36367 -0.295582,0.53079 -1.29e-4,0.0685 -0.03427,0.19117 -0.07589,0.27275 -0.04162,0.0816 -0.07567,0.19799 -0.07567,0.25871 0,0.0607 -0.02674,0.17439 -0.05941,0.25257 -0.04701,0.11254 -0.05687,0.25744 -0.04729,0.69514 0.01167,0.53283 0.01642,0.56114 0.129317,0.77989 0.188764,0.36575 0.251169,0.59503 0.223976,0.82223 -0.02057,0.17189 -0.0092,0.22748 0.08232,0.40406 0.108666,0.20958 0.129994,0.22871 0.342653,0.30748 0.07388,0.0274 0.202189,0.14337 0.321592,0.29071 0.109268,0.13483 0.275247,0.28917 0.368887,0.34302 0.09364,0.0538 0.210855,0.12879 0.26048,0.16648 0.04963,0.0377 0.128465,0.0685 0.175133,0.0685 0.04667,0 0.108223,0.0282 0.136781,0.0627 0.02856,0.0344 0.102951,0.0856 0.165378,0.1138 0.06242,0.0282 0.159445,0.0878 0.215553,0.13249 0.09241,0.0735 0.147849,0.0811 0.589093,0.0811 0.446862,0 0.505293,-0.008 0.706588,-0.10043 0.120684,-0.0552 0.241439,-0.10049 0.268388,-0.10049 0.05252,0 0.282354,-0.27001 0.282354,-0.33172 0,-0.071 -0.204369,-0.40735 -0.361717,-0.59522 -0.08714,-0.10405 -0.170212,-0.22739 -0.184591,-0.27408 -0.01438,-0.0467 -0.04667,-0.10629 -0.07175,-0.13242 -0.08531,-0.0889 -0.281365,-0.4253 -0.33179,-0.56937 -0.03643,-0.10409 -0.0391,-0.16129 -0.0098,-0.20809 0.06137,-0.0981 0.53757,-0.31548 0.75728,-0.34568 0.107148,-0.0147 0.238499,-0.0554 0.291887,-0.0904 0.05339,-0.035 0.119197,-0.0636 0.146312,-0.0636 0.02712,0 0.108583,-0.0401 0.181044,-0.0891 0.07246,-0.049 0.216557,-0.10174 0.320188,-0.11713 0.103632,-0.0154 0.235352,-0.0614 0.292701,-0.1022 0.07361,-0.0524 0.151699,-0.0708 0.26558,-0.0626 l 0.161312,0.0116 0.02719,0.35943 c 0.01495,0.19768 0.01068,0.48409 -0.0095,0.63646 -0.02015,0.15237 -0.03666,0.36741 -0.03666,0.47781 0,0.1104 -0.02527,0.26125 -0.05616,0.33518 -0.0309,0.0739 -0.08061,0.28455 -0.110473,0.46806 -0.02987,0.18351 -0.07106,0.37736 -0.09156,0.43074 -0.0205,0.0534 -0.04972,0.19809 -0.06496,0.32159 -0.01804,0.14623 -0.05725,0.25988 -0.112395,0.32588 -0.04657,0.0557 -0.09623,0.16285 -0.110325,0.23802 -0.0141,0.0752 -0.0588,0.21399 -0.09932,0.30851 -0.04052,0.0945 -0.07367,0.21478 -0.07367,0.26728 0,0.0525 -0.04256,0.14604 -0.09459,0.20786 -0.119663,0.14222 -0.120222,0.27357 -0.0017,0.39209 0.102498,0.1025 0.252271,0.11692 0.550298,0.0531 0.349085,-0.0748 0.414344,-0.0824 0.507365,-0.059 0.136644,0.0343 0.173741,0.22095 0.147346,0.74198 -0.02095,0.41392 -0.02127,0.5289 -0.0032,1.12558 0.0066,0.21806 -0.02191,0.45628 -0.109661,0.91622 -0.01747,0.0915 -0.261612,0.34769 -0.502117,0.52688 -0.143374,0.10682 -0.197363,0.22818 -0.167669,0.37664 0.01612,0.0806 0.06373,0.12823 0.189171,0.18917 0.205362,0.0998 0.236034,0.0999 0.544091,0.004 0.280651,-0.0879 0.356305,-0.13229 0.636535,-0.3731 l 0.201511,-0.17314 -0.02363,-0.20809 c -0.05452,-0.48011 -0.06283,-0.95085 -0.01775,-1.00519 0.02483,-0.0299 0.04857,-0.15229 0.05276,-0.27186 0.01343,-0.38354 0.06762,-0.78195 0.120599,-0.88704 0.02831,-0.0562 0.05243,-0.18389 0.05372,-0.28376 0.0041,-0.3285 0.0571,-0.52752 0.196413,-0.73741 0.129931,-0.19574 0.146706,-0.2073 0.356621,-0.24488 0.296606,-0.0531 0.710518,-0.0226 0.782845,0.0577 0.04701,0.0522 0.04924,0.1095 0.01403,0.3646 -0.02295,0.16647 -0.03946,0.41334 -0.03666,0.5486 0.04265,2.05876 0.03978,2.27066 -0.0331,2.4701 -0.03946,0.10792 -0.0716,0.24749 -0.07146,0.31021 4e-4,0.21559 0.275302,0.51471 0.567219,0.61732 h 7.6e-5 c 0.265758,0.0934 0.787927,0.10804 0.945416,0.0266 0.154554,-0.0799 0.227373,-0.20101 0.227229,-0.37753 -2e-4,-0.21731 -0.105999,-0.36312 -0.412632,-0.56885 l -0.268241,-0.18001 -0.004,-0.30711 c -0.0052,-0.41794 0.0043,-0.54949 0.04811,-0.66372 0.04335,-0.11312 0.09179,-0.60489 0.143651,-1.45944 0.06364,-1.04863 0.03778,-1.01138 0.691068,-0.9947 0.487419,0.0124 0.558863,-0.0146 0.558579,-0.21113 -3.88e-4,-0.2243 -0.564008,-1.24443 -1.016508,-1.83984 -0.247907,-0.3262 -0.271147,-0.37167 -0.251317,-0.49185 0.01199,-0.0728 0.03834,-0.2516 0.05845,-0.39726 0.02011,-0.14566 0.05557,-0.40104 0.07885,-0.56752 0.02327,-0.16647 0.04532,-0.4414 0.04899,-0.61097 0.0064,-0.29541 0.05164,-0.42947 0.144907,-0.42947 0.02071,0 0.0959,0.0511 0.167004,0.1135 0.08576,0.0753 0.170174,0.11368 0.250877,0.11402 0.0669,2.8e-4 0.1275,0.0252 0.174316,0.0377 l 0.133309,0.21304 c 0.02671,0.0549 0.198808,0.21941 0.421276,0.49392 0.29081,0.35882 0.395341,0.40464 0.395341,0.50079 0,0.15381 -0.2452,0.32809 -0.40598,0.28856 -0.253772,-0.0624 -0.29773,-0.0583 -0.480541,0.0443 -0.24762,0.13903 -0.298638,0.27528 -0.158065,0.42201 0.05564,0.0581 0.09873,0.14676 0.09873,0.20321 0,0.25291 0.137731,0.36134 0.404061,0.31812 0.179969,-0.0292 0.27696,-0.12329 0.27696,-0.26853 0,-0.11037 0.05139,-0.21226 0.187326,-0.37148 0.08017,-0.0939 0.103732,-0.0837 0.153183,0.0661 0.08187,0.24807 0.324273,0.31881 0.553701,0.16161 0.168375,-0.11538 0.20299,-0.21058 0.20299,-0.55746 0,-0.1638 0.01024,-0.32448 0.02275,-0.35707 0.01251,-0.0326 0.11892,-0.11313 0.236469,-0.17905 0.117549,-0.0659 0.247755,-0.14961 0.289374,-0.18599 0.04161,-0.0364 0.203362,-0.13324 0.359427,-0.21519 0.435797,-0.22881 0.579528,-0.31359 0.664542,-0.39193 0.0574,-0.0529 0.134312,-0.072 0.290113,-0.072 0.116606,0 0.238848,-0.0103 0.271564,-0.0228 0.09933,-0.0381 0.331605,-0.45559 0.318119,-0.5718 -0.01895,-0.16347 -0.137254,-0.19969 -0.454974,-0.13915 -0.324861,0.0619 -0.408343,0.12771 -0.408343,0.32167 0,0.13742 -0.01059,0.14954 -0.245556,0.28095 -0.135072,0.0755 -0.254972,0.15254 -0.266466,0.17114 -0.02071,0.0335 -0.555696,0.29821 -0.612447,0.30305 -0.01619,0.002 -0.106099,0.0609 -0.19974,0.13212 -0.304118,0.23144 -0.331317,0.24726 -0.438715,0.25501 -0.0877,0.006 -0.120703,-0.0185 -0.191167,-0.14372 -0.04684,-0.0832 -0.214984,-0.29606 -0.373692,-0.47293 -0.1587,-0.17688 -0.320587,-0.38328 -0.359719,-0.45874 -0.03914,-0.0755 -0.09744,-0.1473 -0.129539,-0.15962 -0.08547,-0.0328 -0.0714,-0.12758 0.03622,-0.24363 0.142692,-0.15389 0.124477,-0.28333 -0.06082,-0.43207 -0.08547,-0.0686 -0.194314,-0.20141 -0.241858,-0.29514 -0.04754,-0.0937 -0.19469,-0.27377 -0.326988,-0.40006 -0.132293,-0.1263 -0.280746,-0.27532 -0.329942,-0.33121 -0.0492,-0.0559 -0.134324,-0.11128 -0.189172,-0.12311 -0.05485,-0.0118 -0.136336,-0.0392 -0.181045,-0.0607 -0.0448,-0.0216 -0.15519,-0.0284 -0.24592,-0.0151 -0.09055,0.0133 -0.283853,0.0376 -0.429632,0.0542 -0.235221,0.0267 -0.472782,0.12238 -0.472782,0.1905 0,0.0134 -0.03538,0.0465 -0.07862,0.0735 -0.06071,0.0379 -0.09089,0.0389 -0.132421,0.004 -0.07498,-0.0622 -0.06776,-0.1005 0.0391,-0.20735 0.06431,-0.0643 0.134904,-0.0929 0.22952,-0.0929 0.171998,0 0.253657,-0.0428 0.496574,-0.26055 0.10709,-0.096 0.217759,-0.19324 0.245924,-0.21615 0.02819,-0.0229 0.09865,-0.0958 0.156585,-0.16197 0.09747,-0.11129 0.118689,-0.11868 0.283762,-0.0992 0.190715,0.0225 0.26449,-0.0117 0.342871,-0.15888 0.0351,-0.0659 0.03242,-0.11556 -0.01271,-0.23646 -0.03142,-0.0842 -0.0836,-0.22414 -0.115941,-0.31096 -0.03234,-0.0868 -0.09409,-0.20737 -0.137223,-0.26794 l -0.07848,-0.1101 0.08993,-0.11986 c 0.0958,-0.12766 0.10787,-0.22126 0.168851,-1.31423 0.03362,-0.60278 -0.01211,-0.82582 -0.207276,-1.0106 -0.213408,-0.20205 -0.588047,-0.35002 -0.847285,-0.34797 z m 0.126584,0.37649 c 0.08489,-4e-4 0.171914,0.0129 0.255232,0.0419 0.163141,0.0569 0.323069,0.3362 0.326471,0.57025 0.0016,0.0973 -0.01055,0.19008 -0.02655,0.2061 -0.01599,0.016 -0.0926,-0.0306 -0.170255,-0.10361 -0.09868,-0.0927 -0.227381,-0.15886 -0.42756,-0.21961 -0.254648,-0.0773 -0.307062,-0.0819 -0.47293,-0.0415 -0.102596,0.025 -0.288739,0.0585 -0.413592,0.0744 -0.218682,0.028 -0.457629,0.14033 -0.760825,0.35773 -0.271939,0.19499 -0.545481,0.6242 -0.617692,0.96921 -0.02395,0.11445 -0.04197,0.42942 -0.03998,0.69994 0.002,0.27052 0.0028,0.51281 0.0016,0.5384 -0.0012,0.0256 -0.06938,0.0809 -0.15178,0.12296 -0.08241,0.042 -0.167535,0.0764 -0.189172,0.0764 -0.06087,0 -0.04678,-0.12493 0.03494,-0.30969 0.06785,-0.15341 0.07434,-0.25643 0.07434,-1.18477 v -1.01673 l 0.234841,-0.23698 c 0.239808,-0.24196 0.273519,-0.26132 0.641337,-0.36837 0.309261,-0.09 0.484812,-0.078 0.759498,0.052 0.131921,0.0624 0.268488,0.11349 0.303487,0.1135 0.03498,2e-5 0.101365,-0.053 0.147494,-0.11779 0.100689,-0.1414 0.289906,-0.22217 0.490964,-0.22368 z m -0.345166,0.80273 c 0.13829,-1.5e-4 0.259529,0.0314 0.284273,0.0959 0.0309,0.0806 -0.0331,0.13472 -0.256119,0.21659 -0.128619,0.0472 -0.193978,0.0964 -0.221612,0.16686 -0.02155,0.0549 -0.05444,0.12939 -0.07301,0.16552 -0.05719,0.11129 -0.03834,0.25077 0.03946,0.29241 0.187826,0.10052 0.418694,-0.005 0.418694,-0.19087 0,-0.0881 0.02231,-0.12044 0.103971,-0.15001 0.05722,-0.0207 0.141241,-0.0566 0.186658,-0.0797 0.164709,-0.0839 0.186178,-0.0343 0.22952,0.53124 0.04133,0.53931 0.02551,0.70385 -0.100349,1.04466 -0.02307,0.0624 -0.05929,0.18492 -0.08047,0.27223 -0.0462,0.19037 -0.356617,0.54771 -0.570697,0.65693 -0.190656,0.0973 -0.212397,0.0955 -0.734518,-0.0602 -0.371845,-0.1109 -0.553921,-0.25671 -0.736665,-0.58976 l -0.132493,-0.24134 v -0.51623 c 0,-0.42318 0.01115,-0.52891 0.0617,-0.58643 0.0339,-0.0386 0.08967,-0.12554 0.123921,-0.19317 0.07835,-0.15466 0.135972,-0.15759 0.135972,-0.007 0,0.1607 0.06294,0.26235 0.162198,0.26218 0.134836,-2.9e-4 0.329822,-0.14227 0.388688,-0.28317 0.0915,-0.21899 0.07103,-0.32701 -0.0872,-0.45985 l -0.141656,-0.11897 0.255751,-0.0274 c 0.149708,-0.016 0.290801,-0.0548 0.340288,-0.0936 0.08992,-0.0705 0.256479,-0.10662 0.403693,-0.10679 z m -0.6355,1.28083 c -0.06801,8e-4 -0.134644,0.0197 -0.172769,0.0578 -0.0739,0.0739 -0.07409,0.10511 -0.0016,0.2451 0.04536,0.0877 0.08316,0.11159 0.176683,0.11159 0.220409,0 0.330821,-0.19663 0.19479,-0.34694 -0.04112,-0.0454 -0.119936,-0.0683 -0.197005,-0.0675 z m 0.504554,0.53241 c -0.06135,1.4e-4 -0.128127,8e-4 -0.199959,0.002 -0.57968,0.0118 -0.597267,0.0145 -0.750926,0.11875 -0.187506,0.12726 -0.2694,0.29031 -0.210602,0.41936 0.02195,0.0482 0.173341,0.16625 0.336371,0.26225 0.342879,0.20193 0.385378,0.20134 0.669199,-0.009 0.107122,-0.0795 0.275601,-0.19108 0.374427,-0.24785 0.297746,-0.17102 0.421987,-0.42303 0.253092,-0.51342 -0.04089,-0.0219 -0.205728,-0.033 -0.471602,-0.0322 z m -0.508472,0.21474 c 0.133697,-8e-4 0.446623,0.0352 0.446623,0.0352 l -0.742278,0.12037 c 0,0 0.167943,-0.13841 0.250726,-0.15281 0.01036,-0.002 0.02583,-0.003 0.04493,-0.003 z m 0.428296,0.139 c 0,0 -0.320878,0.15403 -0.404576,0.16383 -0.0837,0.01 -0.303783,-0.0454 -0.303783,-0.0454 z m -0.690328,1.24979 c 0.07529,0 0.09045,0.019 0.09045,0.11351 0,0.0863 -0.01891,0.11623 -0.07892,0.1248 -0.04344,0.006 -0.102092,-0.0165 -0.130278,-0.0505 -0.06875,-0.0828 -0.0024,-0.18784 0.118752,-0.18784 z m -0.995151,0.13242 c 0.103848,0 0.17548,0.0264 0.238684,0.0876 0.398348,0.38643 1.101537,0.59707 1.427585,0.42771 0.307309,-0.15963 0.71817,-0.28894 0.917186,-0.28864 0.250538,4e-4 0.346593,0.0601 0.791865,0.49215 0.160831,0.15606 0.320119,0.30577 0.353958,0.3326 0.148613,0.11783 0.0079,0.47613 -0.246956,0.62878 -0.145582,0.0872 -0.191503,0.0755 -0.294108,-0.0752 -0.123229,-0.18093 -0.35997,-0.30264 -0.481205,-0.2474 -0.09836,0.0448 -0.109377,0.10997 -0.0917,0.54106 0.0062,0.14992 -0.01307,0.3271 -0.04715,0.4351 -0.06566,0.20815 -0.08545,0.31938 -0.136779,0.76859 -0.02103,0.18423 -0.06982,0.38566 -0.114243,0.47153 -0.103524,0.2001 -0.09775,0.3584 0.01943,0.53108 0.05335,0.0786 0.147826,0.23844 0.209939,0.35521 0.06211,0.11678 0.187605,0.28892 0.278879,0.38256 0.09128,0.0936 0.177099,0.21587 0.190724,0.27157 0.01363,0.0557 0.05736,0.13066 0.0971,0.16663 0.03974,0.036 0.0722,0.096 0.0722,0.13338 0,0.0374 0.06957,0.19999 0.154514,0.36128 0.137871,0.26178 0.147894,0.29802 0.09363,0.3377 -0.04194,0.0307 -0.421272,0.0506 -1.223268,0.0642 -0.986103,0.0168 -1.219006,0.0318 -1.535027,0.0992 -0.204901,0.0437 -0.506017,0.0794 -0.669123,0.0794 -0.163106,0 -0.344446,0.0191 -0.403025,0.0423 -0.05858,0.0232 -0.272354,0.0644 -0.475072,0.0916 -0.202718,0.0272 -0.422435,0.0763 -0.488227,0.10914 -0.166567,0.0831 -0.217503,0.0751 -0.261665,-0.0411 -0.03031,-0.0797 -0.01826,-0.15864 0.05771,-0.37863 0.05279,-0.15288 0.09592,-0.34194 0.09592,-0.4201 0,-0.0782 0.03405,-0.20559 0.07567,-0.28324 0.04162,-0.0777 0.07567,-0.16443 0.07567,-0.1928 0,-0.0283 0.04856,-0.14335 0.107888,-0.25552 0.05933,-0.11218 0.118135,-0.29329 0.130649,-0.40251 0.01251,-0.10923 0.0576,-0.27739 0.100201,-0.37369 0.0426,-0.0963 0.07813,-0.22831 0.07884,-0.29329 8e-4,-0.065 0.02603,-0.22031 0.05616,-0.34517 0.079,-0.32716 0.07392,-0.93513 -0.0091,-1.08959 -0.048,-0.0893 -0.06316,-0.19833 -0.05779,-0.41536 0.0062,-0.24847 -0.0044,-0.30587 -0.06739,-0.36889 -0.09835,-0.0983 -0.326907,-0.0993 -0.431625,-0.002 -0.114666,0.10668 -0.473176,0.23386 -0.546974,0.19405 -0.123756,-0.0668 -0.221847,-0.21446 -0.245186,-0.3691 -0.02122,-0.14062 -0.01194,-0.17049 0.08018,-0.25731 0.05732,-0.054 0.151352,-0.10808 0.208902,-0.12008 0.05755,-0.012 0.222751,-0.10897 0.367187,-0.21555 0.144432,-0.10658 0.423775,-0.3116 0.62072,-0.45557 0.196945,-0.14396 0.378557,-0.29995 0.403545,-0.34664 0.05033,-0.094 0.27812,-0.16723 0.520665,-0.16723 z m -5.806182,0.37909 c 0.06252,-4e-4 0.143805,0.10854 0.254496,0.33024 0.07016,0.14052 0.221679,0.39846 0.336742,0.5732 0.229519,0.34857 0.388694,0.61454 0.455047,0.76053 0.02364,0.052 0.07732,0.13124 0.119268,0.17602 0.04357,0.0465 0.07088,0.11897 0.0637,0.169 -0.0129,0.0898 -0.03873,0.1067 -0.428814,0.28102 -0.124846,0.0558 -0.286535,0.13027 -0.359354,0.16546 -0.125481,0.0606 -0.140019,0.0603 -0.276887,-0.006 -0.181075,-0.0875 -0.239215,-0.21992 -0.289596,-0.65967 -0.05077,-0.44318 -0.04934,-1.3223 0.0026,-1.56443 0.03203,-0.14937 0.07101,-0.22507 0.122813,-0.22553 z m -0.653826,0.76371 c 0.0017,-1e-5 0.0035,2.8e-4 0.0053,8e-4 0.027,0.009 0.05357,0.0573 0.05904,0.10774 0.0055,0.0504 0.03727,0.19826 0.07057,0.32854 0.03331,0.13027 0.05129,0.27222 0.03998,0.31545 -0.0113,0.0432 -0.0058,0.22107 0.01212,0.3952 0.02493,0.24163 0.05566,0.35043 0.12976,0.45948 0.05527,0.0813 0.09703,0.19608 0.09703,0.26647 0,0.0957 -0.01602,0.12362 -0.07101,0.12362 -0.105012,0 -0.143883,-0.0657 -0.259076,-0.4382 -0.0926,-0.29941 -0.105676,-0.40692 -0.115943,-0.95591 -0.0088,-0.47077 -0.0024,-0.60317 0.03222,-0.60335 z m 3.943649,0.71671 c 0.04905,-1e-5 0.08234,0.026 0.11801,0.0769 0.0701,0.10008 0.03436,0.15521 -0.167077,0.25797 -0.07561,0.0386 -0.159542,0.0968 -0.186585,0.12939 -0.02704,0.0326 -0.119563,0.0779 -0.205578,0.10072 -0.08601,0.0228 -0.190491,0.072 -0.232104,0.10929 -0.052,0.0465 -0.158533,0.0732 -0.34051,0.0852 -0.290693,0.0192 -0.360378,0.008 -0.357432,-0.0588 0.003,-0.0668 0.298439,-0.29011 0.383959,-0.29011 0.04129,0 0.117821,-0.0335 0.170034,-0.0746 0.05221,-0.0411 0.156996,-0.0861 0.232918,-0.10012 0.07592,-0.014 0.224586,-0.0741 0.330313,-0.13346 0.122604,-0.0688 0.198458,-0.10233 0.254052,-0.10234 z m 6.383232,0.0322 c 0.02483,0 0.340064,0.47254 0.340064,0.50973 0,0.0137 0.09251,0.11588 0.205505,0.22708 0.177746,0.17493 0.399846,0.46931 0.399846,0.52991 0,0.0108 -0.04256,0.0197 -0.09458,0.0197 -0.125573,0 -0.164761,-0.15825 -0.344059,-0.36379 -0.133237,-0.15274 -0.448086,-0.51815 -0.545865,-0.59323 l -0.128871,-0.14439 c 0,-0.067 0.103116,-0.18496 0.167964,-0.18496 z m -8.276728,0.90862 c 0.03982,-2.9e-4 0.06621,0.0279 0.06621,0.0707 0,0.0737 -0.09563,0.11641 -0.262402,0.11734 -0.05068,2.9e-4 -0.129828,0.036 -0.175944,0.0793 -0.04612,0.0433 -0.153413,0.0881 -0.238387,0.0995 -0.08497,0.0114 -0.173857,0.044 -0.197523,0.0726 -0.04789,0.0577 -0.147273,0.0703 -0.147273,0.0186 0,-0.0561 0.08813,-0.11048 0.284719,-0.17564 0.103536,-0.0343 0.209873,-0.0902 0.236317,-0.12422 0.04809,-0.0619 0.309507,-0.15712 0.434283,-0.15821 z m 0.26196,0.37819 c 0.05731,-8e-4 0.26658,0.20737 0.336889,0.33541 0.04141,0.0754 0.125741,0.2137 0.187399,0.30734 0.06166,0.0936 0.139628,0.2296 0.17321,0.30208 0.03358,0.0725 0.09318,0.17267 0.132495,0.22265 0.03931,0.05 0.07146,0.13767 0.07146,0.19486 0,0.13257 -0.01951,0.13608 -0.624267,0.11269 -0.60148,-0.0233 -0.678696,-0.0599 -0.877434,-0.4161 -0.07547,-0.13526 -0.177048,-0.29404 -0.225751,-0.35285 -0.0487,-0.0588 -0.0886,-0.14501 -0.0886,-0.19154 0,-0.0985 0.166108,-0.26713 0.302676,-0.30726 0.05202,-0.0153 0.114974,-0.044 0.139808,-0.0639 0.0396,-0.0316 0.403612,-0.14222 0.472119,-0.14343 z m -1.693387,0.19169 c 0.03563,-4e-4 0.07143,0.0163 0.118972,0.0516 0.05876,0.0436 0.06507,0.0682 0.03155,0.12296 -0.06454,0.10542 -0.154782,0.10221 -0.227081,-0.008 -0.05574,-0.0851 -0.05751,-0.1052 -0.01182,-0.13412 0.03306,-0.0209 0.06067,-0.0319 0.08838,-0.0323 z m 10.829146,0.3162 c 0.0062,-3e-5 0.01183,0.002 0.01671,0.004 0.05657,0.0349 0.0397,0.15841 -0.02507,0.18325 -0.09373,0.036 -0.129391,0.0274 -0.129391,-0.0311 0,-0.0634 0.08731,-0.15631 0.137739,-0.15651 z m -10.446737,0.21052 c 0.06978,0 0.106096,0.0319 0.146682,0.1291 0.02967,0.071 0.08853,0.16376 0.130868,0.20609 0.04234,0.0423 0.103853,0.12897 0.136708,0.1925 0.04521,0.0874 0.04806,0.11527 0.01153,0.11439 -0.0864,-0.002 -0.196009,-0.0833 -0.396745,-0.29418 -0.16265,-0.17083 -0.190555,-0.21938 -0.159465,-0.27747 0.02101,-0.0393 0.07871,-0.0704 0.130425,-0.0704 z m 1.051087,0.97417 h 1.014141 c 0,0 -0.07836,0.0912 -0.438791,0.10035 -0.360433,0.009 -0.57535,-0.10035 -0.57535,-0.10035 z m 6.546837,1.56392 c 0.0016,-1e-5 0.0028,-2e-5 0.0044,0 0.04475,4e-4 0.09348,0.0145 0.151044,0.0408 0.105059,0.0479 0.12249,0.14053 0.05091,0.27068 -0.02639,0.048 -0.05687,0.34459 -0.07271,0.70688 -0.01503,0.34335 -0.03782,0.87114 -0.0507,1.17287 -0.03386,0.79471 -0.05348,0.94118 -0.136927,1.02463 -0.0881,0.0881 -0.161103,0.0921 -0.240087,0.0132 -0.07205,-0.072 -0.07238,-0.082 -0.0097,-0.26684 0.03238,-0.0954 0.03962,-0.19953 0.02075,-0.29802 -0.01595,-0.0832 -0.02903,-0.66842 -0.02903,-1.30048 l -7.2e-5,-1.14922 0.108845,-0.10878 c 0.06973,-0.0697 0.129807,-0.10383 0.19878,-0.10559 0.0016,-4e-5 0.0028,-6e-5 0.0044,-8e-5 z m -2.36975,0.3765 c 0.0024,-2e-5 0.0049,-3e-5 0.0073,0 0.06069,4e-4 0.117149,0.0137 0.144315,0.0409 0.04865,0.0486 0.02223,0.42637 -0.03798,0.54305 -0.02115,0.041 -0.06014,0.32506 -0.08661,0.63129 -0.03442,0.39838 -0.07046,0.6072 -0.12658,0.73408 -0.04696,0.10615 -0.08049,0.26691 -0.0835,0.40059 -0.0028,0.12281 -0.01691,0.27826 -0.03138,0.34538 -0.0416,0.1926 -0.08106,-0.58586 -0.06097,-1.20221 0.0095,-0.29132 0.01827,-0.71996 0.01943,-0.95258 0.0016,-0.33192 0.01495,-0.43573 0.06163,-0.48239 0.03738,-0.0374 0.118373,-0.0576 0.194347,-0.0581 z m 2.252997,3.40266 c 0.158376,2.8e-4 0.348348,0.0239 0.429551,0.0624 0.191316,0.0908 0.327359,0.26562 0.278144,0.35758 -0.03218,0.0601 -0.07702,0.072 -0.255311,0.0673 -0.341828,-0.009 -0.405684,-0.028 -0.571208,-0.16966 -0.161479,-0.13822 -0.199312,-0.25392 -0.09592,-0.29359 0.04112,-0.0158 0.115062,-0.0233 0.199519,-0.024 0.005,-4e-5 0.01011,-8e-5 0.01523,-7e-5 z m -2.735314,0.001 c 0.08408,0 0.152123,0.0127 0.151263,0.0284 -7.99e-4,0.0156 -0.09878,0.0758 -0.217546,0.13376 -0.237233,0.11575 -0.310584,0.12833 -0.310584,0.0531 0,-0.0919 0.215876,-0.21526 0.376867,-0.21526 z" /></g><script
     id="mesh_polyfill"
     type="text/javascript">
!function(){const t=&quot;http://www.w3.org/2000/svg&quot;,e=&quot;http://www.w3.org/1999/xlink&quot;,s=&quot;http://www.w3.org/1999/xhtml&quot;,r=2;if(document.createElementNS(t,&quot;meshgradient&quot;).x)return;const n=(t,e,s,r)=&gt;{let n=new x(.5*(e.x+s.x),.5*(e.y+s.y)),o=new x(.5*(t.x+e.x),.5*(t.y+e.y)),i=new x(.5*(s.x+r.x),.5*(s.y+r.y)),a=new x(.5*(n.x+o.x),.5*(n.y+o.y)),h=new x(.5*(n.x+i.x),.5*(n.y+i.y)),l=new x(.5*(a.x+h.x),.5*(a.y+h.y));return[[t,o,a,l],[l,h,i,r]]},o=t=&gt;{let e=t[0].distSquared(t[1]),s=t[2].distSquared(t[3]),r=.25*t[0].distSquared(t[2]),n=.25*t[1].distSquared(t[3]),o=e&gt;s?e:s,i=r&gt;n?r:n;return 18*(o&gt;i?o:i)},i=(t,e)=&gt;Math.sqrt(t.distSquared(e)),a=(t,e)=&gt;t.scale(2/3).add(e.scale(1/3)),h=t=&gt;{let e,s,r,n,o,i,a,h=new g;return t.match(/(\w+\(\s*[^)]+\))+/g).forEach(t=&gt;{let l=t.match(/[\w.-]+/g),d=l.shift();switch(d){case&quot;translate&quot;:2===l.length?e=new g(1,0,0,1,l[0],l[1]):(console.error(&quot;mesh.js: translate does not have 2 arguments!&quot;),e=new g(1,0,0,1,0,0)),h=h.append(e);break;case&quot;scale&quot;:1===l.length?s=new g(l[0],0,0,l[0],0,0):2===l.length?s=new g(l[0],0,0,l[1],0,0):(console.error(&quot;mesh.js: scale does not have 1 or 2 arguments!&quot;),s=new g(1,0,0,1,0,0)),h=h.append(s);break;case&quot;rotate&quot;:if(3===l.length&amp;&amp;(e=new g(1,0,0,1,l[1],l[2]),h=h.append(e)),l[0]){r=l[0]*Math.PI/180;let t=Math.cos(r),e=Math.sin(r);Math.abs(t)&lt;1e-16&amp;&amp;(t=0),Math.abs(e)&lt;1e-16&amp;&amp;(e=0),a=new g(t,e,-e,t,0,0),h=h.append(a)}else console.error(&quot;math.js: No argument to rotate transform!&quot;);3===l.length&amp;&amp;(e=new g(1,0,0,1,-l[1],-l[2]),h=h.append(e));break;case&quot;skewX&quot;:l[0]?(r=l[0]*Math.PI/180,n=Math.tan(r),o=new g(1,0,n,1,0,0),h=h.append(o)):console.error(&quot;math.js: No argument to skewX transform!&quot;);break;case&quot;skewY&quot;:l[0]?(r=l[0]*Math.PI/180,n=Math.tan(r),i=new g(1,n,0,1,0,0),h=h.append(i)):console.error(&quot;math.js: No argument to skewY transform!&quot;);break;case&quot;matrix&quot;:6===l.length?h=h.append(new g(...l)):console.error(&quot;math.js: Incorrect number of arguments for matrix!&quot;);break;default:console.error(&quot;mesh.js: Unhandled transform type: &quot;+d)}}),h},l=t=&gt;{let e=[],s=t.split(/[ ,]+/);for(let t=0,r=s.length-1;t&lt;r;t+=2)e.push(new x(parseFloat(s[t]),parseFloat(s[t+1])));return e},d=(t,e)=&gt;{for(let s in e)t.setAttribute(s,e[s])},c=(t,e,s,r,n)=&gt;{let o,i,a=[0,0,0,0];for(let h=0;h&lt;3;++h)e[h]&lt;t[h]&amp;&amp;e[h]&lt;s[h]||t[h]&lt;e[h]&amp;&amp;s[h]&lt;e[h]?a[h]=0:(a[h]=.5*((e[h]-t[h])/r+(s[h]-e[h])/n),o=Math.abs(3*(e[h]-t[h])/r),i=Math.abs(3*(s[h]-e[h])/n),a[h]&gt;o?a[h]=o:a[h]&gt;i&amp;&amp;(a[h]=i));return a},u=[[1,0,0,0,0,0,0,0,0,0,0,0,0,0,0,0],[0,0,0,0,1,0,0,0,0,0,0,0,0,0,0,0],[-3,3,0,0,-2,-1,0,0,0,0,0,0,0,0,0,0],[2,-2,0,0,1,1,0,0,0,0,0,0,0,0,0,0],[0,0,0,0,0,0,0,0,1,0,0,0,0,0,0,0],[0,0,0,0,0,0,0,0,0,0,0,0,1,0,0,0],[0,0,0,0,0,0,0,0,-3,3,0,0,-2,-1,0,0],[0,0,0,0,0,0,0,0,2,-2,0,0,1,1,0,0],[-3,0,3,0,0,0,0,0,-2,0,-1,0,0,0,0,0],[0,0,0,0,-3,0,3,0,0,0,0,0,-2,0,-1,0],[9,-9,-9,9,6,3,-6,-3,6,-6,3,-3,4,2,2,1],[-6,6,6,-6,-3,-3,3,3,-4,4,-2,2,-2,-2,-1,-1],[2,0,-2,0,0,0,0,0,1,0,1,0,0,0,0,0],[0,0,0,0,2,0,-2,0,0,0,0,0,1,0,1,0],[-6,6,6,-6,-4,-2,4,2,-3,3,-3,3,-2,-1,-2,-1],[4,-4,-4,4,2,2,-2,-2,2,-2,2,-2,1,1,1,1]],f=t=&gt;{let e=[];for(let s=0;s&lt;16;++s){e[s]=0;for(let r=0;r&lt;16;++r)e[s]+=u[s][r]*t[r]}return e},p=(t,e,s)=&gt;{const r=e*e,n=s*s,o=e*e*e,i=s*s*s;return t[0]+t[1]*e+t[2]*r+t[3]*o+t[4]*s+t[5]*s*e+t[6]*s*r+t[7]*s*o+t[8]*n+t[9]*n*e+t[10]*n*r+t[11]*n*o+t[12]*i+t[13]*i*e+t[14]*i*r+t[15]*i*o},y=t=&gt;{let e=[],s=[],r=[];for(let s=0;s&lt;4;++s)e[s]=[],e[s][0]=n(t[0][s],t[1][s],t[2][s],t[3][s]),e[s][1]=[],e[s][1].push(...n(...e[s][0][0])),e[s][1].push(...n(...e[s][0][1])),e[s][2]=[],e[s][2].push(...n(...e[s][1][0])),e[s][2].push(...n(...e[s][1][1])),e[s][2].push(...n(...e[s][1][2])),e[s][2].push(...n(...e[s][1][3]));for(let t=0;t&lt;8;++t){s[t]=[];for(let r=0;r&lt;4;++r)s[t][r]=[],s[t][r][0]=n(e[0][2][t][r],e[1][2][t][r],e[2][2][t][r],e[3][2][t][r]),s[t][r][1]=[],s[t][r][1].push(...n(...s[t][r][0][0])),s[t][r][1].push(...n(...s[t][r][0][1])),s[t][r][2]=[],s[t][r][2].push(...n(...s[t][r][1][0])),s[t][r][2].push(...n(...s[t][r][1][1])),s[t][r][2].push(...n(...s[t][r][1][2])),s[t][r][2].push(...n(...s[t][r][1][3]))}for(let t=0;t&lt;8;++t){r[t]=[];for(let e=0;e&lt;8;++e)r[t][e]=[],r[t][e][0]=s[t][0][2][e],r[t][e][1]=s[t][1][2][e],r[t][e][2]=s[t][2][2][e],r[t][e][3]=s[t][3][2][e]}return r};class x{constructor(t,e){this.x=t||0,this.y=e||0}toString(){return`(x=${this.x}, y=${this.y})`}clone(){return new x(this.x,this.y)}add(t){return new x(this.x+t.x,this.y+t.y)}scale(t){return void 0===t.x?new x(this.x*t,this.y*t):new x(this.x*t.x,this.y*t.y)}distSquared(t){let e=this.x-t.x,s=this.y-t.y;return e*e+s*s}transform(t){let e=this.x*t.a+this.y*t.c+t.e,s=this.x*t.b+this.y*t.d+t.f;return new x(e,s)}}class g{constructor(t,e,s,r,n,o){void 0===t?(this.a=1,this.b=0,this.c=0,this.d=1,this.e=0,this.f=0):(this.a=t,this.b=e,this.c=s,this.d=r,this.e=n,this.f=o)}toString(){return`affine: ${this.a} ${this.c} ${this.e} \n       ${this.b} ${this.d} ${this.f}`}append(t){t instanceof g||console.error(&quot;mesh.js: argument to Affine.append is not affine!&quot;);let e=this.a*t.a+this.c*t.b,s=this.b*t.a+this.d*t.b,r=this.a*t.c+this.c*t.d,n=this.b*t.c+this.d*t.d,o=this.a*t.e+this.c*t.f+this.e,i=this.b*t.e+this.d*t.f+this.f;return new g(e,s,r,n,o,i)}}class w{constructor(t,e){this.nodes=t,this.colors=e}paintCurve(t,e){if(o(this.nodes)&gt;r){const s=n(...this.nodes);let r=[[],[]],o=[[],[]];for(let t=0;t&lt;4;++t)r[0][t]=this.colors[0][t],r[1][t]=(this.colors[0][t]+this.colors[1][t])/2,o[0][t]=r[1][t],o[1][t]=this.colors[1][t];let i=new w(s[0],r),a=new w(s[1],o);i.paintCurve(t,e),a.paintCurve(t,e)}else{let s=Math.round(this.nodes[0].x);if(s&gt;=0&amp;&amp;s&lt;e){let r=4*(~~this.nodes[0].y*e+s);t[r]=Math.round(this.colors[0][0]),t[r+1]=Math.round(this.colors[0][1]),t[r+2]=Math.round(this.colors[0][2]),t[r+3]=Math.round(this.colors[0][3])}}}}class m{constructor(t,e){this.nodes=t,this.colors=e}split(){let t=[[],[],[],[]],e=[[],[],[],[]],s=[[[],[]],[[],[]]],r=[[[],[]],[[],[]]];for(let s=0;s&lt;4;++s){const r=n(this.nodes[0][s],this.nodes[1][s],this.nodes[2][s],this.nodes[3][s]);t[0][s]=r[0][0],t[1][s]=r[0][1],t[2][s]=r[0][2],t[3][s]=r[0][3],e[0][s]=r[1][0],e[1][s]=r[1][1],e[2][s]=r[1][2],e[3][s]=r[1][3]}for(let t=0;t&lt;4;++t)s[0][0][t]=this.colors[0][0][t],s[0][1][t]=this.colors[0][1][t],s[1][0][t]=(this.colors[0][0][t]+this.colors[1][0][t])/2,s[1][1][t]=(this.colors[0][1][t]+this.colors[1][1][t])/2,r[0][0][t]=s[1][0][t],r[0][1][t]=s[1][1][t],r[1][0][t]=this.colors[1][0][t],r[1][1][t]=this.colors[1][1][t];return[new m(t,s),new m(e,r)]}paint(t,e){let s,n=!1;for(let t=0;t&lt;4;++t)if((s=o([this.nodes[0][t],this.nodes[1][t],this.nodes[2][t],this.nodes[3][t]]))&gt;r){n=!0;break}if(n){let s=this.split();s[0].paint(t,e),s[1].paint(t,e)}else{new w([...this.nodes[0]],[...this.colors[0]]).paintCurve(t,e)}}}class b{constructor(t){this.readMesh(t),this.type=t.getAttribute(&quot;type&quot;)||&quot;bilinear&quot;}readMesh(t){let e=[[]],s=[[]],r=Number(t.getAttribute(&quot;x&quot;)),n=Number(t.getAttribute(&quot;y&quot;));e[0][0]=new x(r,n);let o=t.children;for(let t=0,r=o.length;t&lt;r;++t){e[3*t+1]=[],e[3*t+2]=[],e[3*t+3]=[],s[t+1]=[];let r=o[t].children;for(let n=0,o=r.length;n&lt;o;++n){let o=r[n].children;for(let r=0,i=o.length;r&lt;i;++r){let i=r;0!==t&amp;&amp;++i;let h,d=o[r].getAttribute(&quot;path&quot;),c=&quot;l&quot;;null!=d&amp;&amp;(c=(h=d.match(/\s*([lLcC])\s*(.*)/))[1]);let u=l(h[2]);switch(c){case&quot;l&quot;:0===i?(e[3*t][3*n+3]=u[0].add(e[3*t][3*n]),e[3*t][3*n+1]=a(e[3*t][3*n],e[3*t][3*n+3]),e[3*t][3*n+2]=a(e[3*t][3*n+3],e[3*t][3*n])):1===i?(e[3*t+3][3*n+3]=u[0].add(e[3*t][3*n+3]),e[3*t+1][3*n+3]=a(e[3*t][3*n+3],e[3*t+3][3*n+3]),e[3*t+2][3*n+3]=a(e[3*t+3][3*n+3],e[3*t][3*n+3])):2===i?(0===n&amp;&amp;(e[3*t+3][3*n+0]=u[0].add(e[3*t+3][3*n+3])),e[3*t+3][3*n+1]=a(e[3*t+3][3*n],e[3*t+3][3*n+3]),e[3*t+3][3*n+2]=a(e[3*t+3][3*n+3],e[3*t+3][3*n])):(e[3*t+1][3*n]=a(e[3*t][3*n],e[3*t+3][3*n]),e[3*t+2][3*n]=a(e[3*t+3][3*n],e[3*t][3*n]));break;case&quot;L&quot;:0===i?(e[3*t][3*n+3]=u[0],e[3*t][3*n+1]=a(e[3*t][3*n],e[3*t][3*n+3]),e[3*t][3*n+2]=a(e[3*t][3*n+3],e[3*t][3*n])):1===i?(e[3*t+3][3*n+3]=u[0],e[3*t+1][3*n+3]=a(e[3*t][3*n+3],e[3*t+3][3*n+3]),e[3*t+2][3*n+3]=a(e[3*t+3][3*n+3],e[3*t][3*n+3])):2===i?(0===n&amp;&amp;(e[3*t+3][3*n+0]=u[0]),e[3*t+3][3*n+1]=a(e[3*t+3][3*n],e[3*t+3][3*n+3]),e[3*t+3][3*n+2]=a(e[3*t+3][3*n+3],e[3*t+3][3*n])):(e[3*t+1][3*n]=a(e[3*t][3*n],e[3*t+3][3*n]),e[3*t+2][3*n]=a(e[3*t+3][3*n],e[3*t][3*n]));break;case&quot;c&quot;:0===i?(e[3*t][3*n+1]=u[0].add(e[3*t][3*n]),e[3*t][3*n+2]=u[1].add(e[3*t][3*n]),e[3*t][3*n+3]=u[2].add(e[3*t][3*n])):1===i?(e[3*t+1][3*n+3]=u[0].add(e[3*t][3*n+3]),e[3*t+2][3*n+3]=u[1].add(e[3*t][3*n+3]),e[3*t+3][3*n+3]=u[2].add(e[3*t][3*n+3])):2===i?(e[3*t+3][3*n+2]=u[0].add(e[3*t+3][3*n+3]),e[3*t+3][3*n+1]=u[1].add(e[3*t+3][3*n+3]),0===n&amp;&amp;(e[3*t+3][3*n+0]=u[2].add(e[3*t+3][3*n+3]))):(e[3*t+2][3*n]=u[0].add(e[3*t+3][3*n]),e[3*t+1][3*n]=u[1].add(e[3*t+3][3*n]));break;case&quot;C&quot;:0===i?(e[3*t][3*n+1]=u[0],e[3*t][3*n+2]=u[1],e[3*t][3*n+3]=u[2]):1===i?(e[3*t+1][3*n+3]=u[0],e[3*t+2][3*n+3]=u[1],e[3*t+3][3*n+3]=u[2]):2===i?(e[3*t+3][3*n+2]=u[0],e[3*t+3][3*n+1]=u[1],0===n&amp;&amp;(e[3*t+3][3*n+0]=u[2])):(e[3*t+2][3*n]=u[0],e[3*t+1][3*n]=u[1]);break;default:console.error(&quot;mesh.js: &quot;+c+&quot; invalid path type.&quot;)}if(0===t&amp;&amp;0===n||r&gt;0){let e=window.getComputedStyle(o[r]).stopColor.match(/^rgb\s*\(\s*(\d+)\s*,\s*(\d+)\s*,\s*(\d+)\s*\)$/i),a=window.getComputedStyle(o[r]).stopOpacity,h=255;a&amp;&amp;(h=Math.floor(255*a)),e&amp;&amp;(0===i?(s[t][n]=[],s[t][n][0]=Math.floor(e[1]),s[t][n][1]=Math.floor(e[2]),s[t][n][2]=Math.floor(e[3]),s[t][n][3]=h):1===i?(s[t][n+1]=[],s[t][n+1][0]=Math.floor(e[1]),s[t][n+1][1]=Math.floor(e[2]),s[t][n+1][2]=Math.floor(e[3]),s[t][n+1][3]=h):2===i?(s[t+1][n+1]=[],s[t+1][n+1][0]=Math.floor(e[1]),s[t+1][n+1][1]=Math.floor(e[2]),s[t+1][n+1][2]=Math.floor(e[3]),s[t+1][n+1][3]=h):3===i&amp;&amp;(s[t+1][n]=[],s[t+1][n][0]=Math.floor(e[1]),s[t+1][n][1]=Math.floor(e[2]),s[t+1][n][2]=Math.floor(e[3]),s[t+1][n][3]=h))}}e[3*t+1][3*n+1]=new x,e[3*t+1][3*n+2]=new x,e[3*t+2][3*n+1]=new x,e[3*t+2][3*n+2]=new x,e[3*t+1][3*n+1].x=(-4*e[3*t][3*n].x+6*(e[3*t][3*n+1].x+e[3*t+1][3*n].x)+-2*(e[3*t][3*n+3].x+e[3*t+3][3*n].x)+3*(e[3*t+3][3*n+1].x+e[3*t+1][3*n+3].x)+-1*e[3*t+3][3*n+3].x)/9,e[3*t+1][3*n+2].x=(-4*e[3*t][3*n+3].x+6*(e[3*t][3*n+2].x+e[3*t+1][3*n+3].x)+-2*(e[3*t][3*n].x+e[3*t+3][3*n+3].x)+3*(e[3*t+3][3*n+2].x+e[3*t+1][3*n].x)+-1*e[3*t+3][3*n].x)/9,e[3*t+2][3*n+1].x=(-4*e[3*t+3][3*n].x+6*(e[3*t+3][3*n+1].x+e[3*t+2][3*n].x)+-2*(e[3*t+3][3*n+3].x+e[3*t][3*n].x)+3*(e[3*t][3*n+1].x+e[3*t+2][3*n+3].x)+-1*e[3*t][3*n+3].x)/9,e[3*t+2][3*n+2].x=(-4*e[3*t+3][3*n+3].x+6*(e[3*t+3][3*n+2].x+e[3*t+2][3*n+3].x)+-2*(e[3*t+3][3*n].x+e[3*t][3*n+3].x)+3*(e[3*t][3*n+2].x+e[3*t+2][3*n].x)+-1*e[3*t][3*n].x)/9,e[3*t+1][3*n+1].y=(-4*e[3*t][3*n].y+6*(e[3*t][3*n+1].y+e[3*t+1][3*n].y)+-2*(e[3*t][3*n+3].y+e[3*t+3][3*n].y)+3*(e[3*t+3][3*n+1].y+e[3*t+1][3*n+3].y)+-1*e[3*t+3][3*n+3].y)/9,e[3*t+1][3*n+2].y=(-4*e[3*t][3*n+3].y+6*(e[3*t][3*n+2].y+e[3*t+1][3*n+3].y)+-2*(e[3*t][3*n].y+e[3*t+3][3*n+3].y)+3*(e[3*t+3][3*n+2].y+e[3*t+1][3*n].y)+-1*e[3*t+3][3*n].y)/9,e[3*t+2][3*n+1].y=(-4*e[3*t+3][3*n].y+6*(e[3*t+3][3*n+1].y+e[3*t+2][3*n].y)+-2*(e[3*t+3][3*n+3].y+e[3*t][3*n].y)+3*(e[3*t][3*n+1].y+e[3*t+2][3*n+3].y)+-1*e[3*t][3*n+3].y)/9,e[3*t+2][3*n+2].y=(-4*e[3*t+3][3*n+3].y+6*(e[3*t+3][3*n+2].y+e[3*t+2][3*n+3].y)+-2*(e[3*t+3][3*n].y+e[3*t][3*n+3].y)+3*(e[3*t][3*n+2].y+e[3*t+2][3*n].y)+-1*e[3*t][3*n].y)/9}}this.nodes=e,this.colors=s}paintMesh(t,e){let s=(this.nodes.length-1)/3,r=(this.nodes[0].length-1)/3;if(&quot;bilinear&quot;===this.type||s&lt;2||r&lt;2){let n;for(let o=0;o&lt;s;++o)for(let s=0;s&lt;r;++s){let r=[];for(let t=3*o,e=3*o+4;t&lt;e;++t)r.push(this.nodes[t].slice(3*s,3*s+4));let i=[];i.push(this.colors[o].slice(s,s+2)),i.push(this.colors[o+1].slice(s,s+2)),(n=new m(r,i)).paint(t,e)}}else{let n,o,a,h,l,d,u;const x=s,g=r;s++,r++;let w=new Array(s);for(let t=0;t&lt;s;++t){w[t]=new Array(r);for(let e=0;e&lt;r;++e)w[t][e]=[],w[t][e][0]=this.nodes[3*t][3*e],w[t][e][1]=this.colors[t][e]}for(let t=0;t&lt;s;++t)for(let e=0;e&lt;r;++e)0!==t&amp;&amp;t!==x&amp;&amp;(n=i(w[t-1][e][0],w[t][e][0]),o=i(w[t+1][e][0],w[t][e][0]),w[t][e][2]=c(w[t-1][e][1],w[t][e][1],w[t+1][e][1],n,o)),0!==e&amp;&amp;e!==g&amp;&amp;(n=i(w[t][e-1][0],w[t][e][0]),o=i(w[t][e+1][0],w[t][e][0]),w[t][e][3]=c(w[t][e-1][1],w[t][e][1],w[t][e+1][1],n,o));for(let t=0;t&lt;r;++t){w[0][t][2]=[],w[x][t][2]=[];for(let e=0;e&lt;4;++e)n=i(w[1][t][0],w[0][t][0]),o=i(w[x][t][0],w[x-1][t][0]),w[0][t][2][e]=n&gt;0?2*(w[1][t][1][e]-w[0][t][1][e])/n-w[1][t][2][e]:0,w[x][t][2][e]=o&gt;0?2*(w[x][t][1][e]-w[x-1][t][1][e])/o-w[x-1][t][2][e]:0}for(let t=0;t&lt;s;++t){w[t][0][3]=[],w[t][g][3]=[];for(let e=0;e&lt;4;++e)n=i(w[t][1][0],w[t][0][0]),o=i(w[t][g][0],w[t][g-1][0]),w[t][0][3][e]=n&gt;0?2*(w[t][1][1][e]-w[t][0][1][e])/n-w[t][1][3][e]:0,w[t][g][3][e]=o&gt;0?2*(w[t][g][1][e]-w[t][g-1][1][e])/o-w[t][g-1][3][e]:0}for(let s=0;s&lt;x;++s)for(let r=0;r&lt;g;++r){let n=i(w[s][r][0],w[s+1][r][0]),o=i(w[s][r+1][0],w[s+1][r+1][0]),c=i(w[s][r][0],w[s][r+1][0]),x=i(w[s+1][r][0],w[s+1][r+1][0]),g=[[],[],[],[]];for(let t=0;t&lt;4;++t){(d=[])[0]=w[s][r][1][t],d[1]=w[s+1][r][1][t],d[2]=w[s][r+1][1][t],d[3]=w[s+1][r+1][1][t],d[4]=w[s][r][2][t]*n,d[5]=w[s+1][r][2][t]*n,d[6]=w[s][r+1][2][t]*o,d[7]=w[s+1][r+1][2][t]*o,d[8]=w[s][r][3][t]*c,d[9]=w[s+1][r][3][t]*x,d[10]=w[s][r+1][3][t]*c,d[11]=w[s+1][r+1][3][t]*x,d[12]=0,d[13]=0,d[14]=0,d[15]=0,u=f(d);for(let e=0;e&lt;9;++e){g[t][e]=[];for(let s=0;s&lt;9;++s)g[t][e][s]=p(u,e/8,s/8),g[t][e][s]&gt;255?g[t][e][s]=255:g[t][e][s]&lt;0&amp;&amp;(g[t][e][s]=0)}}h=[];for(let t=3*s,e=3*s+4;t&lt;e;++t)h.push(this.nodes[t].slice(3*r,3*r+4));l=y(h);for(let s=0;s&lt;8;++s)for(let r=0;r&lt;8;++r)(a=new m(l[s][r],[[[g[0][s][r],g[1][s][r],g[2][s][r],g[3][s][r]],[g[0][s][r+1],g[1][s][r+1],g[2][s][r+1],g[3][s][r+1]]],[[g[0][s+1][r],g[1][s+1][r],g[2][s+1][r],g[3][s+1][r]],[g[0][s+1][r+1],g[1][s+1][r+1],g[2][s+1][r+1],g[3][s+1][r+1]]]])).paint(t,e)}}}transform(t){if(t instanceof x)for(let e=0,s=this.nodes.length;e&lt;s;++e)for(let s=0,r=this.nodes[0].length;s&lt;r;++s)this.nodes[e][s]=this.nodes[e][s].add(t);else if(t instanceof g)for(let e=0,s=this.nodes.length;e&lt;s;++e)for(let s=0,r=this.nodes[0].length;s&lt;r;++s)this.nodes[e][s]=this.nodes[e][s].transform(t)}scale(t){for(let e=0,s=this.nodes.length;e&lt;s;++e)for(let s=0,r=this.nodes[0].length;s&lt;r;++s)this.nodes[e][s]=this.nodes[e][s].scale(t)}}document.querySelectorAll(&quot;rect,circle,ellipse,path,text&quot;).forEach((r,n)=&gt;{let o=r.getAttribute(&quot;id&quot;);o||(o=&quot;patchjs_shape&quot;+n,r.setAttribute(&quot;id&quot;,o));const i=r.style.fill.match(/^url\(\s*&quot;?\s*#([^\s&quot;]+)&quot;?\s*\)/),a=r.style.stroke.match(/^url\(\s*&quot;?\s*#([^\s&quot;]+)&quot;?\s*\)/);if(i&amp;&amp;i[1]){const a=document.getElementById(i[1]);if(a&amp;&amp;&quot;meshgradient&quot;===a.nodeName){const i=r.getBBox();let l=document.createElementNS(s,&quot;canvas&quot;);d(l,{width:i.width,height:i.height});const c=l.getContext(&quot;2d&quot;);let u=c.createImageData(i.width,i.height);const f=new b(a);&quot;objectBoundingBox&quot;===a.getAttribute(&quot;gradientUnits&quot;)&amp;&amp;f.scale(new x(i.width,i.height));const p=a.getAttribute(&quot;gradientTransform&quot;);null!=p&amp;&amp;f.transform(h(p)),&quot;userSpaceOnUse&quot;===a.getAttribute(&quot;gradientUnits&quot;)&amp;&amp;f.transform(new x(-i.x,-i.y)),f.paintMesh(u.data,l.width),c.putImageData(u,0,0);const y=document.createElementNS(t,&quot;image&quot;);d(y,{width:i.width,height:i.height,x:i.x,y:i.y});let g=l.toDataURL();y.setAttributeNS(e,&quot;xlink:href&quot;,g),r.parentNode.insertBefore(y,r),r.style.fill=&quot;none&quot;;const w=document.createElementNS(t,&quot;use&quot;);w.setAttributeNS(e,&quot;xlink:href&quot;,&quot;#&quot;+o);const m=&quot;patchjs_clip&quot;+n,M=document.createElementNS(t,&quot;clipPath&quot;);M.setAttribute(&quot;id&quot;,m),M.appendChild(w),r.parentElement.insertBefore(M,r),y.setAttribute(&quot;clip-path&quot;,&quot;url(#&quot;+m+&quot;)&quot;),u=null,l=null,g=null}}if(a&amp;&amp;a[1]){const o=document.getElementById(a[1]);if(o&amp;&amp;&quot;meshgradient&quot;===o.nodeName){const i=parseFloat(r.style.strokeWidth.slice(0,-2))*(parseFloat(r.style.strokeMiterlimit)||parseFloat(r.getAttribute(&quot;stroke-miterlimit&quot;))||1),a=r.getBBox(),l=Math.trunc(a.width+i),c=Math.trunc(a.height+i),u=Math.trunc(a.x-i/2),f=Math.trunc(a.y-i/2);let p=document.createElementNS(s,&quot;canvas&quot;);d(p,{width:l,height:c});const y=p.getContext(&quot;2d&quot;);let g=y.createImageData(l,c);const w=new b(o);&quot;objectBoundingBox&quot;===o.getAttribute(&quot;gradientUnits&quot;)&amp;&amp;w.scale(new x(l,c));const m=o.getAttribute(&quot;gradientTransform&quot;);null!=m&amp;&amp;w.transform(h(m)),&quot;userSpaceOnUse&quot;===o.getAttribute(&quot;gradientUnits&quot;)&amp;&amp;w.transform(new x(-u,-f)),w.paintMesh(g.data,p.width),y.putImageData(g,0,0);const M=document.createElementNS(t,&quot;image&quot;);d(M,{width:l,height:c,x:0,y:0});let S=p.toDataURL();M.setAttributeNS(e,&quot;xlink:href&quot;,S);const k=&quot;pattern_clip&quot;+n,A=document.createElementNS(t,&quot;pattern&quot;);d(A,{id:k,patternUnits:&quot;userSpaceOnUse&quot;,width:l,height:c,x:u,y:f}),A.appendChild(M),o.parentNode.appendChild(A),r.style.stroke=&quot;url(#&quot;+k+&quot;)&quot;,g=null,p=null,S=null}}})}();
</script></svg>
