<?xml version="1.0" encoding="UTF-8" standalone="no"?>
<svg
   xmlns:dc="http://purl.org/dc/elements/1.1/"
   xmlns:cc="http://creativecommons.org/ns#"
   xmlns:rdf="http://www.w3.org/1999/02/22-rdf-syntax-ns#"
   xmlns:svg="http://www.w3.org/2000/svg"
   xmlns="http://www.w3.org/2000/svg"
   xmlns:xlink="http://www.w3.org/1999/xlink"
   xmlns:sodipodi="http://sodipodi.sourceforge.net/DTD/sodipodi-0.dtd"
   xmlns:inkscape="http://www.inkscape.org/namespaces/inkscape"
   id="svg2"
   height="380.39758"
   width="477.95496"
   version="1.1"
   sodipodi:docname="The_Weather_Channel_1986.svg"
   inkscape:version="1.0.2-2 (e86c870879, 2021-01-15)">
  <metadata
     id="metadata1079">
    <rdf:RDF>
      <cc:Work
         rdf:about="">
        <dc:format>image/svg+xml</dc:format>
        <dc:type
           rdf:resource="http://purl.org/dc/dcmitype/StillImage" />
      </cc:Work>
    </rdf:RDF>
  </metadata>
  <sodipodi:namedview
     pagecolor="#ffffff"
     bordercolor="#666666"
     borderopacity="1"
     objecttolerance="10"
     gridtolerance="10"
     guidetolerance="10"
     inkscape:pageopacity="0"
     inkscape:pageshadow="2"
     inkscape:window-width="1366"
     inkscape:window-height="705"
     id="namedview1077"
     showgrid="false"
     inkscape:snap-global="false"
     inkscape:zoom="1"
     inkscape:cx="232.44461"
     inkscape:cy="199.73034"
     inkscape:window-x="-8"
     inkscape:window-y="-8"
     inkscape:window-maximized="1"
     inkscape:current-layer="layer2"
     inkscape:document-rotation="0" />
  <defs
     id="defs4160">
    <linearGradient
       gradientTransform="translate(-549.82,-375.11)"
       x1="728.44"
       y1="635.53998"
       x2="728.44"
       gradientUnits="userSpaceOnUse"
       y2="396.70001"
       id="linearGradient4954">
      <stop
         offset="0"
         style="stop-color:#8488f7;stop-opacity:1"
         id="stop4950" />
      <stop
         offset="1"
         style="stop-color:#171eff;stop-opacity:1"
         id="stop4952" />
    </linearGradient>
    <linearGradient
       inkscape:collect="always"
       id="linearGradient4866">
      <stop
         style="stop-color:#ffffff;stop-opacity:1;"
         offset="0"
         id="stop4862" />
      <stop
         style="stop-color:#9ea5ff;stop-opacity:1"
         offset="1"
         id="stop4864" />
    </linearGradient>
    <linearGradient
       id="a"
       y2="396.70001"
       gradientUnits="userSpaceOnUse"
       x2="728.44"
       y1="635.53998"
       x1="728.44"
       gradientTransform="translate(-549.82,-375.11)">
      <stop
         id="stop4750"
         style="stop-color:#8488f7;stop-opacity:1"
         offset="0" />
      <stop
         id="stop4752"
         style="stop-color:#0b11cc;stop-opacity:1"
         offset="1" />
    </linearGradient>
    <linearGradient
       inkscape:collect="always"
       xlink:href="#a"
       id="linearGradient1342"
       gradientUnits="userSpaceOnUse"
       gradientTransform="matrix(1.3274314,0,0,1.3274314,-788.29483,-544.10389)"
       x1="728.44"
       y1="635.53998"
       x2="728.44"
       y2="396.70001" />
    <linearGradient
       inkscape:collect="always"
       xlink:href="#linearGradient4954"
       id="linearGradient16564"
       gradientUnits="userSpaceOnUse"
       gradientTransform="matrix(1.3274314,0,0,1.3274314,-788.29483,-544.10389)"
       x1="728.44"
       y1="635.53998"
       x2="728.44"
       y2="396.70001" />
    <clipPath
       clipPathUnits="userSpaceOnUse"
       id="clipPath4946">
      <path
         inkscape:connector-curvature="0"
         id="path4948"
         d="M 40.379457,-17.525124 H 316.60731 c 38.88707,0 70.19324,31.306189 70.19324,70.193246 V 229.32534 c 0,38.88706 -31.30617,70.19324 -70.19324,70.19324 H 40.379457 c -38.88706,0 -70.193248,-31.30618 -70.193248,-70.19324 V 52.668122 c 0,-38.887057 31.306188,-70.193246 70.193248,-70.193246 z"
         style="fill:#000000;fill-rule:evenodd;stroke:none;stroke-width:1.32743"
         sodipodi:nodetypes="ccccccccc" />
    </clipPath>
    <linearGradient
       inkscape:collect="always"
       xlink:href="#linearGradient4866"
       id="linearGradient4963"
       gradientUnits="userSpaceOnUse"
       x1="173.58054"
       y1="41.009964"
       x2="173.58054"
       y2="309.94247" />
  </defs>
  <g
     inkscape:groupmode="layer"
     id="layer2"
     inkscape:label="Layer 1"
     transform="translate(54.477489,42.188821)">
    <g
       id="g4961">
      <path
         sodipodi:nodetypes="ccccccccc"
         style="fill:#0a0d66;fill-opacity:1;stroke:none;stroke-width:6.20614;stroke-miterlimit:4;stroke-dasharray:none"
         d="M 52.168373,-28.188821 H 328.83159 c 52.43382,0 94.64588,42.212055 94.64588,94.645863 V 243.56291 c 0,52.43381 -42.21206,94.64586 -94.64588,94.64586 H 52.168373 c -52.433808,0 -94.645862,-42.21205 -94.645862,-94.64586 V 66.457042 c 0,-52.433808 42.212054,-94.645863 94.645862,-94.645863 z"
         id="rect4724-9"
         inkscape:connector-curvature="0" />
      <path
         sodipodi:nodetypes="ccccccccc"
         style="fill:url(#linearGradient4963);fill-opacity:1;stroke:none;stroke-width:6.20614;stroke-miterlimit:4;stroke-dasharray:none"
         d="M 40.168373,-42.188821 H 316.83159 c 52.43382,0 94.64588,42.21205492 94.64588,94.645863 V 229.56291 c 0,52.43381 -42.21206,94.64586 -94.64588,94.64586 H 40.168373 c -52.433808,0 -94.645862,-42.21205 -94.645862,-94.64586 V 52.457042 c 0,-52.43380808 42.212054,-94.645863 94.645862,-94.645863 z"
         id="rect4724"
         inkscape:connector-curvature="0" />
      <path
         sodipodi:nodetypes="ccccccccc"
         style="fill:url(#linearGradient16564);fill-rule:evenodd;stroke:none;stroke-width:1.32743"
         d="M 40.379457,-17.525124 H 316.60731 c 38.88707,0 70.19324,31.306189 70.19324,70.193246 V 229.32534 c 0,38.88706 -31.30617,70.19324 -70.19324,70.19324 H 40.379457 c -38.8870597,0 -70.193248,-31.30618 -70.193248,-70.19324 V 52.668122 c 0,-38.887057 31.3061883,-70.193246 70.193248,-70.193246 z"
         id="rect4726"
         inkscape:connector-curvature="0" />
      <path
         sodipodi:nodetypes="ccccccccccccccccccccccccccccccccccccccccccccccccccccccccccccccccccccccccccccccccccccccccccccccccccccccccccccccccccccccccccccccccccccccccccccccccccccccccccccccccccccccccccccccccccccccccccccccccccccccccccccccccccccccccccccccccccccccccccccccccccc"
         inkscape:connector-curvature="0"
         id="path3786-3"
         d="M 111.19047,24.599462 V 42.49719 h 12.93833 v 55.17914 h 20.93374 V 42.49719 h 12.79743 V 24.599462 Z m 49.3633,0 V 97.67633 h 20.59885 V 69.213836 h 12.48814 V 97.67633 h 20.59885 V 24.599462 H 193.64076 V 51.316109 H 181.15262 V 24.599462 Z m 69.59615,0 c -4.08959,0 -7.04008,1.08441 -8.86651,3.230012 -1.82647,2.145649 -2.75054,5.430267 -2.75054,9.86571 v 46.883611 c 0,4.579942 0.94235,7.910301 2.80544,9.982821 1.86302,2.072454 4.87581,3.114714 9.0367,3.114714 h 25.95902 V 80.446577 H 239.46844 V 68.66117 h 15.43451 V 51.868784 H 239.46844 V 41.741377 h 16.86559 V 24.599462 Z M 34.914699,105.47411 c -5.988537,0 -9.36604,2.86598 -10.299427,8.52795 l -4.600697,27.90801 -5.585262,-35.00853 H -6.702072 l 13.469041,65.4493 c 1.242032,6.03533 5.119801,9.05134 11.618879,9.05134 6.791001,0 10.664529,-3.01854 11.703055,-9.05134 l 4.714164,-27.38461 4.827623,27.38461 c 1.062774,6.02857 4.910067,9.05134 11.701238,9.05134 6.427425,0 10.324069,-3.01149 11.618877,-9.05134 l 14.030862,-65.4493 H 55.738642 l -5.585263,35.00853 -5.050886,-27.90801 c -1.026198,-5.67013 -4.417545,-8.52795 -10.187794,-8.52795 z m 110.850571,0 c -3.94489,0 -7.03408,0.91738 -9.26179,2.7359 -2.22768,1.81849 -3.85669,4.6803 -4.77089,8.61397 l -14.67686,63.15261 h 21.01975 l 1.88127,-10.24453 h 11.16869 l 1.6269,10.24453 h 20.93557 l -13.91922,-63.15261 c -1.66741,-7.56518 -6.33664,-11.34987 -14.00342,-11.34987 z m -55.537834,1.42743 c -4.089754,0 -7.042067,1.08421 -8.868336,3.23 -1.826357,2.1459 -2.750542,5.4302 -2.750542,9.86571 v 46.88362 c 0,4.57984 0.944026,7.90839 2.807277,9.981 1.863153,2.0725 4.875698,3.11472 9.0367,3.11472 H 116.41155 V 162.74866 H 99.54413 v -11.78724 h 15.43451 V 134.16903 H 99.54413 v -10.12741 h 16.86742 v -17.14008 z m 75.629764,0 v 17.89773 h 12.91088 v 55.17732 h 20.93375 v -55.17732 h 12.82487 v -17.89773 z m 49.36332,0 v 73.07505 h 20.57139 v -28.46251 h 12.48815 v 28.46251 h 20.59883 v -73.07505 h -20.59883 v 26.71482 h -12.48815 v -26.71482 z m 69.56868,0 c -4.08973,0 -7.0399,1.08403 -8.86651,3.23 -1.82638,2.14572 -2.72308,5.4302 -2.72308,9.86571 v 46.88362 c 0,4.57984 0.91481,7.90856 2.77799,9.981 1.86339,2.07267 4.87571,3.11472 9.0367,3.11472 h 25.95902 v -17.22793 h -16.86559 v -11.78724 h 15.46195 v -16.79239 h -15.46195 v -10.12741 h 16.86559 v -17.14008 z m 41.95534,0 c -4.30809,0 -7.35872,0.99724 -9.14834,2.99758 -1.78973,2.00046 -2.69381,5.22507 -2.69381,9.66075 v 60.41672 h 20.82212 v -56.72006 c 6.13574,1e-4 9.20506,2.43332 9.20506,7.30368 0,3.41724 -1.48672,6.18864 -4.37744,8.41084 -2.87985,2.21385 -4.2658,5.60599 -4.2658,10.04137 0,2.03457 0.39971,4.32811 1.29017,6.86811 l 8.44743,24.09606 h 22.78757 l -13.69413,-32.50688 1.20599,-0.64051 c 2.33471,-1.23998 4.63859,-3.4215 6.90288,-6.54786 2.26428,-3.12636 3.39654,-6.96029 3.39654,-11.46698 0,-6.69029 -2.12714,-12.01317 -6.39962,-15.9762 -4.27259,-3.96312 -10.34191,-5.93662 -18.15576,-5.93662 z m -181.09272,30.32365 2.72308,16.67525 h -5.69689 z m -14.28341,52.41396 c -3.94475,0 -7.034,0.91543 -9.26181,2.73407 -2.22738,1.8183 -3.82574,4.68244 -4.7416,8.6158 l -14.70431,63.15077 h 21.04721 l 1.85199,-10.24453 h 11.19613 l 1.62873,10.24453 h 20.93558 L 145.4011,200.98902 c -1.66743,-7.56504 -6.36588,-11.34987 -14.03269,-11.34987 z m 41.98278,0 c -4.16344,0 -7.38903,1.04033 -9.65343,3.11289 -2.2643,2.07246 -3.39653,4.96493 -3.39653,8.67252 v 62.71523 h 19.84121 V 230.76 l 7.66052,24.12532 c 2.25583,7.10431 6.75822,10.68006 13.69596,10.68006 4.0896,0 7.26809,-1.0404 9.56925,-3.11288 2.30108,-2.07241 3.45144,-4.96468 3.45144,-8.67252 v -62.71523 h -19.81193 v 31.3137 l -7.77399,-22.02994 c -2.51959,-7.14002 -7.08381,-10.70936 -13.5825,-10.70936 z m 58.62328,0 c -4.16303,0 -7.38916,1.04043 -9.65343,3.11289 -2.26436,2.07256 -3.39472,4.96493 -3.39472,8.67252 v 62.71523 h 19.83939 V 230.76 l 7.66235,24.12532 c 2.25634,7.10421 6.75622,10.68006 13.69413,10.68006 4.08951,0 7.26812,-1.04041 9.56924,-3.11288 2.30105,-2.07242 3.45145,-4.96468 3.45145,-8.67252 v -62.71523 h -19.81195 v 31.3137 l -7.77397,-22.02994 c -2.51959,-7.14003 -7.08362,-10.70936 -13.58249,-10.70936 z m -197.255581,1.4256 c -10.88292,0 -19.099377,3.40821 -24.66701,10.15668 -5.5316842,6.7049 -8.306524,15.40278 -8.306524,26.16215 0,24.5038 10.991666,36.75621 32.973534,36.75621 h 9.625975 v -18.30581 h -5.360173 c -10.443777,0 -15.659589,-6.16192 -15.659589,-18.4504 0,-5.9621 1.320263,-10.51458 3.985814,-13.67766 2.665322,-3.16281 6.561133,-4.74344 11.673775,-4.74344 h 5.360173 v -17.89773 z m 13.245778,0 v 73.07504 H 68.563511 V 235.6773 H 81.05166 v 28.46249 h 20.59702 V 191.06475 H 81.05166 v 26.71481 H 68.563511 v -26.71481 z m 241.203803,0 c -4.08982,0 -7.04187,1.0842 -8.86833,3.23001 -1.82628,2.14559 -2.75054,5.4301 -2.75054,9.86571 v 46.88361 c 0,4.57989 0.94401,7.91031 2.80727,9.98282 1.86311,2.07234 4.8737,3.11289 9.03486,3.11289 h 25.95902 v -17.22792 h -16.86558 v -11.78725 h 15.4345 v -16.79055 h -15.4345 v -10.12924 h 16.86558 v -17.14008 z m 30.11137,0 v 59.97933 c 0,4.57989 0.91461,7.91025 2.77798,9.98282 1.86311,2.07228 4.87573,3.11289 9.0367,3.11289 h 25.64974 v -18.30581 h -16.55813 v -54.76923 z m -188.02306,30.32365 2.75053,16.67526 h -5.69872 z"
         style="font-style:normal;font-variant:normal;font-weight:normal;font-stretch:normal;font-size:119.525px;line-height:84%;font-family:'Harry Obese Squeezed';-inkscape-font-specification:'Harry Obese Squeezed';text-align:center;letter-spacing:0px;word-spacing:0px;writing-mode:lr-tb;text-anchor:middle;opacity:0.5;fill:#000000;fill-opacity:1;stroke:none;stroke-width:0;stroke-miterlimit:4;stroke-dasharray:none" />
      <path
         sodipodi:nodetypes="ccccccccccccccccccccccccccccccccccccccccccccccccccccccccccccccccccccccccccccccccccccccccccccccccccccccccccccccccccccccccccccccccccccccccccccccccccccccccccccccccccccccccccccccccccccccccccccccccccccccccccccccccccccccccccccccccccccccccccccccccccc"
         inkscape:connector-curvature="0"
         id="path3786"
         d="m 107.19047,18.599457 v 17.897728 h 12.93833 v 55.179143 h 20.93374 V 36.497185 h 12.79743 V 18.599457 Z m 49.3633,0 v 73.076871 h 20.59885 V 63.213831 h 12.48814 v 28.462497 h 20.59885 V 18.599457 H 189.64076 V 45.316104 H 177.15262 V 18.599457 Z m 69.59615,0 c -4.08959,0 -7.04008,1.08441 -8.86651,3.230012 -1.82647,2.145649 -2.75054,5.430267 -2.75054,9.86571 V 78.57879 c 0,4.579942 0.94235,7.910301 2.80544,9.982821 1.86302,2.07245 4.87581,3.114717 9.0367,3.114717 h 25.95902 V 74.446572 H 235.46844 V 62.661165 h 15.43451 V 45.868779 H 235.46844 V 35.741372 h 16.86559 V 18.599457 Z M 30.914699,99.47411 c -5.988537,0 -9.366039,2.86598 -10.299427,8.52794 l -4.600697,27.90801 -5.585262,-35.00853 h -21.131385 l 13.4690413,65.4493 c 1.2420316,6.03533 5.1198003,9.05134 11.6188787,9.05134 6.791001,0 10.664529,-3.01854 11.703055,-9.05134 l 4.714164,-27.38461 4.827623,27.38461 c 1.062774,6.02857 4.910067,9.05134 11.701238,9.05134 6.427425,0 10.324069,-3.01149 11.618877,-9.05134 l 14.030862,-65.4493 H 51.738642 l -5.585263,35.00853 -5.050886,-27.90801 c -1.026199,-5.67012 -4.417545,-8.52794 -10.187794,-8.52794 z m 110.850571,0 c -3.94489,0 -7.03408,0.91737 -9.26179,2.73589 -2.22768,1.8185 -3.85669,4.68031 -4.77089,8.61397 l -14.67686,63.15261 h 21.01975 l 1.88127,-10.24453 h 11.16869 l 1.6269,10.24453 h 20.93557 l -13.91922,-63.15261 c -1.66741,-7.56517 -6.33664,-11.34986 -14.00342,-11.34986 z m -55.537834,1.42742 c -4.089754,0 -7.042067,1.08421 -8.868336,3.23001 -1.826357,2.14589 -2.750542,5.43019 -2.750542,9.86571 v 46.88361 c 0,4.57984 0.944026,7.90839 2.807277,9.981 1.863153,2.0725 4.875698,3.11472 9.0367,3.11472 H 112.41155 V 156.74865 H 95.544131 V 144.96141 H 110.97864 V 128.16902 H 95.544131 v -10.1274 h 16.867419 v -17.14009 z m 75.629764,0 v 17.89773 h 12.91088 v 55.17732 h 20.93375 v -55.17732 h 12.82487 v -17.89773 z m 49.36332,0 v 73.07505 h 20.57139 v -28.46251 h 12.48815 v 28.46251 h 20.59883 v -73.07505 h -20.59883 v 26.71482 h -12.48815 v -26.71482 z m 69.56868,0 c -4.08973,0 -7.0399,1.08403 -8.86651,3.23001 -1.82638,2.14571 -2.72308,5.43019 -2.72308,9.86571 v 46.88361 c 0,4.57984 0.91481,7.90856 2.77799,9.981 1.86339,2.07267 4.87571,3.11472 9.0367,3.11472 h 25.95902 v -17.22793 h -16.86559 v -11.78724 h 15.46195 v -16.79239 h -15.46195 v -10.1274 h 16.86559 v -17.14009 z m 41.95534,0 c -4.30809,0 -7.35872,0.99724 -9.14834,2.99759 -1.78973,2.00046 -2.69381,5.22506 -2.69381,9.66075 v 60.41671 h 20.82212 v -56.72005 c 6.13574,1e-4 9.20506,2.43331 9.20506,7.30367 0,3.41724 -1.48672,6.18864 -4.37744,8.41084 -2.87985,2.21385 -4.2658,5.60599 -4.2658,10.04137 0,2.03457 0.39971,4.32811 1.29017,6.86811 l 8.44743,24.09606 h 22.78757 l -13.69413,-32.50688 1.20599,-0.64051 c 2.33471,-1.23998 4.63859,-3.4215 6.90288,-6.54786 2.26428,-3.12636 3.39654,-6.96029 3.39654,-11.46698 0,-6.69028 -2.12714,-12.01317 -6.39962,-15.97619 -4.27259,-3.96313 -10.34191,-5.93663 -18.15576,-5.93663 z m -181.09272,30.32365 2.72308,16.67525 h -5.69689 z m -14.28341,52.41396 c -3.94475,0 -7.034,0.91543 -9.26181,2.73407 -2.22738,1.8183 -3.82574,4.68244 -4.7416,8.6158 L 98.660689,258.13978 H 119.7079 l 1.85199,-10.24453 h 11.19613 l 1.62873,10.24453 h 20.93558 L 141.4011,194.98901 c -1.66743,-7.56504 -6.36588,-11.34987 -14.03269,-11.34987 z m 41.98278,0 c -4.16344,0 -7.38903,1.04033 -9.65343,3.11289 -2.2643,2.07246 -3.39653,4.96493 -3.39653,8.67252 v 62.71523 h 19.84121 v -33.37979 l 7.66052,24.12532 c 2.25583,7.10431 6.75822,10.68006 13.69596,10.68006 4.0896,0 7.26809,-1.0404 9.56925,-3.11288 2.30108,-2.07241 3.45144,-4.96468 3.45144,-8.67252 v -62.71523 h -19.81193 v 31.3137 l -7.77399,-22.02994 c -2.51959,-7.14002 -7.08381,-10.70936 -13.5825,-10.70936 z m 58.62328,0 c -4.16303,0 -7.38916,1.04043 -9.65343,3.11289 -2.26436,2.07256 -3.39472,4.96493 -3.39472,8.67252 v 62.71523 h 19.83939 v -33.37979 l 7.66235,24.12532 c 2.25634,7.10421 6.75622,10.68006 13.69413,10.68006 4.08951,0 7.26812,-1.04041 9.56924,-3.11288 2.30105,-2.07242 3.45145,-4.96468 3.45145,-8.67252 v -62.71523 h -19.81195 v 31.3137 l -7.77397,-22.02994 c -2.51959,-7.14003 -7.08362,-10.70936 -13.58249,-10.70936 z m -197.255581,1.4256 c -10.88292,0 -19.099377,3.40821 -24.6670104,10.15668 -5.53168386,6.7049 -8.3065239,15.40278 -8.3065239,26.16215 0,24.5038 10.991666,36.75621 32.9735343,36.75621 h 9.625975 v -18.30581 h -5.360173 c -10.443777,0 -15.659589,-6.16192 -15.659589,-18.4504 0,-5.9621 1.320263,-10.51458 3.985814,-13.67766 2.665322,-3.16281 6.561133,-4.74344 11.673775,-4.74344 h 5.360173 v -17.89773 z m 13.245778,0 v 73.07504 H 64.563511 V 229.67729 H 77.05166 v 28.46249 H 97.648675 V 185.06474 H 77.05166 v 26.71481 H 64.563511 v -26.71481 z m 241.203803,0 c -4.08982,0 -7.04187,1.0842 -8.86833,3.23001 -1.82628,2.14559 -2.75054,5.4301 -2.75054,9.86571 v 46.88361 c 0,4.57989 0.94401,7.91031 2.80727,9.98282 1.86311,2.07234 4.8737,3.11289 9.03486,3.11289 h 25.95902 v -17.22792 h -16.86558 v -11.78725 h 15.4345 v -16.79055 h -15.4345 v -10.12924 h 16.86558 v -17.14008 z m 30.11137,0 v 59.97933 c 0,4.57989 0.91461,7.91025 2.77798,9.98282 1.86311,2.07228 4.87573,3.11289 9.0367,3.11289 h 25.64974 v -18.30581 h -16.55813 v -54.76923 z m -188.02306,30.32365 2.75053,16.67526 h -5.69872 z"
         style="font-style:normal;font-variant:normal;font-weight:normal;font-stretch:normal;font-size:119.525px;line-height:84%;font-family:'Harry Obese Squeezed';-inkscape-font-specification:'Harry Obese Squeezed';text-align:center;letter-spacing:0px;word-spacing:0px;writing-mode:lr-tb;text-anchor:middle;fill:#ffffff;fill-opacity:1;stroke:none;stroke-width:0;stroke-miterlimit:4;stroke-dasharray:none" />
      <path
         sodipodi:nodetypes="cccccccccccccccccc"
         clip-path="url(#clipPath4946)"
         inkscape:connector-curvature="0"
         id="rect4724-6"
         d="m 50.005405,-30.364324 c -52.4338091,0 -94.64453,42.21269 -94.64453,94.64649 V 241.38764 c 0,52.43381 42.2107209,94.64648 94.64453,94.64648 H 326.66942 c 52.4338,0 94.6465,-42.21267 94.6465,-94.64648 V 64.282166 c 0,-52.4338 -42.2126,-94.64649 -94.6465,-94.64649 z m 0.21093,24.6640608 H 326.44482 c 38.8871,0 70.1934,31.3063092 70.1934,70.1933592 V 241.14935 c 0,38.88706 -31.3063,70.19336 -70.1934,70.19336 H 50.216335 c -38.88706,0 -70.19335,-31.3063 -70.19335,-70.19336 V 64.493096 c 0,-38.88705 31.3063,-70.1933492 70.19335,-70.1933592 z"
         style="opacity:0.6;fill:#000000;fill-opacity:1;stroke:none;stroke-width:6.20614;stroke-miterlimit:4;stroke-dasharray:none" />
    </g>
  </g>
</svg>
