<?xml version="1.0" encoding="UTF-8" standalone="no"?>
<svg
   id="svg2"
   height="82.92807"
   width="380.74033"
   version="1.1"
   sodipodi:docname="weather.svg"
   inkscape:version="1.2.2 (b0a8486541, 2022-12-01)"
   xml:space="preserve"
   inkscape:export-filename="weather.png"
   inkscape:export-xdpi="250"
   inkscape:export-ydpi="250"
   xmlns:inkscape="http://www.inkscape.org/namespaces/inkscape"
   xmlns:sodipodi="http://sodipodi.sourceforge.net/DTD/sodipodi-0.dtd"
   xmlns:xlink="http://www.w3.org/1999/xlink"
   xmlns="http://www.w3.org/2000/svg"
   xmlns:svg="http://www.w3.org/2000/svg"
   xmlns:rdf="http://www.w3.org/1999/02/22-rdf-syntax-ns#"
   xmlns:cc="http://creativecommons.org/ns#"
   xmlns:dc="http://purl.org/dc/elements/1.1/"><metadata
     id="metadata1079"><rdf:RDF><cc:Work
         rdf:about=""><dc:format>image/svg+xml</dc:format><dc:type
           rdf:resource="http://purl.org/dc/dcmitype/StillImage" /></cc:Work></rdf:RDF></metadata><sodipodi:namedview
     pagecolor="#ffffff"
     bordercolor="#666666"
     borderopacity="1"
     objecttolerance="10"
     gridtolerance="10"
     guidetolerance="10"
     inkscape:pageopacity="0"
     inkscape:pageshadow="2"
     inkscape:window-width="2560"
     inkscape:window-height="1510"
     id="namedview1077"
     showgrid="false"
     inkscape:snap-global="false"
     inkscape:zoom="2.919765"
     inkscape:cx="142.64847"
     inkscape:cy="-28.084452"
     inkscape:window-x="0"
     inkscape:window-y="54"
     inkscape:window-maximized="1"
     inkscape:current-layer="layer2"
     inkscape:document-rotation="0"
     inkscape:showpageshadow="2"
     inkscape:pagecheckerboard="0"
     inkscape:deskcolor="#d1d1d1" /><defs
     id="defs4160"><linearGradient
       inkscape:collect="always"
       id="linearGradient6301"><stop
         style="stop-color:#ffffff;stop-opacity:1;"
         offset="0"
         id="stop6297" /><stop
         style="stop-color:#929292;stop-opacity:1;"
         offset="1"
         id="stop6299" /></linearGradient><linearGradient
       inkscape:collect="always"
       id="linearGradient1064"><stop
         style="stop-color:#dedede;stop-opacity:1;"
         offset="0"
         id="stop1060" /><stop
         style="stop-color:#a2a2a2;stop-opacity:1;"
         offset="1"
         id="stop1062" /></linearGradient><linearGradient
       gradientTransform="translate(-549.82,-375.11)"
       x1="728.44"
       y1="635.53998"
       x2="728.44"
       gradientUnits="userSpaceOnUse"
       y2="396.70001"
       id="linearGradient4954"><stop
         offset="0"
         style="stop-color:#8488f7;stop-opacity:1"
         id="stop4950" /><stop
         offset="1"
         style="stop-color:#171eff;stop-opacity:1"
         id="stop4952" /></linearGradient><linearGradient
       id="a"
       y2="396.70001"
       gradientUnits="userSpaceOnUse"
       x2="728.44"
       y1="635.53998"
       x1="728.44"
       gradientTransform="translate(-549.82,-375.11)"><stop
         id="stop4750"
         style="stop-color:#8488f7;stop-opacity:1"
         offset="0" /><stop
         id="stop4752"
         style="stop-color:#0b11cc;stop-opacity:1"
         offset="1" /></linearGradient><clipPath
       clipPathUnits="userSpaceOnUse"
       id="clipPath4946"><path
         inkscape:connector-curvature="0"
         id="path4948"
         d="M 40.379457,-17.525124 H 316.60731 c 38.88707,0 70.19324,31.306189 70.19324,70.193246 V 229.32534 c 0,38.88706 -31.30617,70.19324 -70.19324,70.19324 H 40.379457 c -38.88706,0 -70.193248,-31.30618 -70.193248,-70.19324 V 52.668122 c 0,-38.887057 31.306188,-70.193246 70.193248,-70.193246 z"
         style="fill:#000000;fill-rule:evenodd;stroke:none;stroke-width:1.32743"
         sodipodi:nodetypes="ccccccccc" /></clipPath><linearGradient
       inkscape:collect="always"
       xlink:href="#linearGradient1064"
       id="linearGradient1066"
       x1="180.24252"
       y1="174.40186"
       x2="181.45839"
       y2="100.74824"
       gradientUnits="userSpaceOnUse" /><linearGradient
       inkscape:collect="always"
       xlink:href="#linearGradient6301"
       id="linearGradient6303"
       x1="0.82909626"
       y1="175.15237"
       x2="56.419357"
       y2="81.311295"
       gradientUnits="userSpaceOnUse" /><linearGradient
       inkscape:collect="always"
       xlink:href="#linearGradient6301"
       id="linearGradient7065"
       gradientUnits="userSpaceOnUse"
       x1="71.239838"
       y1="175.12834"
       x2="118.06321"
       y2="89.486816" /><linearGradient
       inkscape:collect="always"
       xlink:href="#linearGradient6301"
       id="linearGradient7793"
       gradientUnits="userSpaceOnUse"
       x1="112.68047"
       y1="176.54012"
       x2="156.86121"
       y2="89.748802" /><linearGradient
       inkscape:collect="always"
       xlink:href="#linearGradient6301"
       id="linearGradient7795"
       gradientUnits="userSpaceOnUse"
       x1="169.94727"
       y1="172.31042"
       x2="209.358"
       y2="88.399506" /><linearGradient
       inkscape:collect="always"
       xlink:href="#linearGradient6301"
       id="linearGradient7797"
       gradientUnits="userSpaceOnUse"
       x1="218.16821"
       y1="175.04109"
       x2="251.27731"
       y2="75.857033" /><linearGradient
       inkscape:collect="always"
       xlink:href="#linearGradient6301"
       id="linearGradient7799"
       gradientUnits="userSpaceOnUse"
       x1="270.96527"
       y1="174.26729"
       x2="300.68411"
       y2="63.643547" /><linearGradient
       inkscape:collect="always"
       xlink:href="#linearGradient6301"
       id="linearGradient7805"
       gradientUnits="userSpaceOnUse"
       x1="307.01422"
       y1="176.38853"
       x2="365.85541"
       y2="81.146301" /><clipPath
       clipPathUnits="userSpaceOnUse"
       id="clipPath4946-9"><path
         inkscape:connector-curvature="0"
         id="path4948-1"
         d="M 40.379457,-17.525124 H 316.60731 c 38.88707,0 70.19324,31.306189 70.19324,70.193246 V 229.32534 c 0,38.88706 -31.30617,70.19324 -70.19324,70.19324 H 40.379457 c -38.88706,0 -70.193248,-31.30618 -70.193248,-70.19324 V 52.668122 c 0,-38.887057 31.306188,-70.193246 70.193248,-70.193246 z"
         style="fill:#000000;fill-rule:evenodd;stroke:none;stroke-width:1.32743"
         sodipodi:nodetypes="ccccccccc" /></clipPath><linearGradient
       inkscape:collect="always"
       xlink:href="#linearGradient6301"
       id="linearGradient12241"
       gradientUnits="userSpaceOnUse"
       x1="138.31496"
       y1="149.55606"
       x2="146.87427"
       y2="121.66351" /><linearGradient
       inkscape:collect="always"
       xlink:href="#linearGradient1064"
       id="linearGradient20008"
       gradientUnits="userSpaceOnUse"
       x1="180.24252"
       y1="174.40186"
       x2="181.45839"
       y2="100.74824" /><linearGradient
       inkscape:collect="always"
       xlink:href="#linearGradient1064"
       id="linearGradient20010"
       gradientUnits="userSpaceOnUse"
       x1="180.24252"
       y1="174.40186"
       x2="181.45839"
       y2="100.74824" /><linearGradient
       inkscape:collect="always"
       xlink:href="#linearGradient1064"
       id="linearGradient20012"
       gradientUnits="userSpaceOnUse"
       x1="180.24252"
       y1="174.40186"
       x2="181.45839"
       y2="100.74824" /><linearGradient
       inkscape:collect="always"
       xlink:href="#linearGradient1064"
       id="linearGradient20014"
       gradientUnits="userSpaceOnUse"
       x1="180.24252"
       y1="174.40186"
       x2="181.45839"
       y2="100.74824" /><linearGradient
       inkscape:collect="always"
       xlink:href="#linearGradient1064"
       id="linearGradient20016"
       gradientUnits="userSpaceOnUse"
       x1="180.24252"
       y1="174.40186"
       x2="181.45839"
       y2="100.74824" /><linearGradient
       inkscape:collect="always"
       xlink:href="#linearGradient1064"
       id="linearGradient20018"
       gradientUnits="userSpaceOnUse"
       x1="180.24252"
       y1="174.40186"
       x2="181.45839"
       y2="100.74824" /></defs><g
     inkscape:groupmode="layer"
     id="layer2"
     inkscape:label="Layer 1"
     transform="translate(11.928821,-98.47411)"><path
       sodipodi:nodetypes="ccccccccccccccccccccccccccccccccccccccccccccccccccccccccccccccccccccccccccccccccccccccccccccccccccccccccccc"
       inkscape:connector-curvature="0"
       id="path3786-3"
       d="m 34.914699,105.47411 c -5.988537,0 -9.36604,2.86598 -10.299427,8.52795 l -4.600697,27.90801 -5.585262,-35.00853 H -6.702072 l 13.469041,65.4493 c 1.242032,6.03533 5.119801,9.05134 11.618879,9.05134 6.791001,0 10.664529,-3.01854 11.703055,-9.05134 l 4.714164,-27.38461 4.827623,27.38461 c 1.062774,6.02857 4.910067,9.05134 11.701238,9.05134 6.427425,0 10.324069,-3.01149 11.618877,-9.05134 l 14.030862,-65.4493 H 55.738642 l -5.585263,35.00853 -5.050886,-27.90801 c -1.026198,-5.67013 -4.417545,-8.52795 -10.187794,-8.52795 z m 110.850571,0 c -3.94489,0 -7.03408,0.91738 -9.26179,2.7359 -2.22768,1.81849 -3.85669,4.6803 -4.77089,8.61397 l -14.67686,63.15261 h 21.01975 l 1.88127,-10.24453 h 11.16869 l 1.6269,10.24453 h 20.93557 l -13.91922,-63.15261 c -1.66741,-7.56518 -6.33664,-11.34987 -14.00342,-11.34987 z m -55.537834,1.42743 c -4.089754,0 -7.042067,1.08421 -8.868336,3.23 -1.826357,2.1459 -2.750542,5.4302 -2.750542,9.86571 v 46.88362 c 0,4.57984 0.944026,7.90839 2.807277,9.981 1.863153,2.0725 4.875698,3.11472 9.0367,3.11472 H 116.41155 V 162.74866 H 99.54413 v -11.78724 h 15.43451 V 134.16903 H 99.54413 v -10.12741 h 16.86742 v -17.14008 z m 75.629764,0 v 17.89773 h 12.91088 v 55.17732 h 20.93375 v -55.17732 h 12.82487 v -17.89773 z m 49.36332,0 v 73.07505 h 20.57139 v -28.46251 h 12.48815 v 28.46251 h 20.59883 v -73.07505 h -20.59883 v 26.71482 h -12.48815 v -26.71482 z m 69.56868,0 c -4.08973,0 -7.0399,1.08403 -8.86651,3.23 -1.82638,2.14572 -2.72308,5.4302 -2.72308,9.86571 v 46.88362 c 0,4.57984 0.91481,7.90856 2.77799,9.981 1.86339,2.07267 4.87571,3.11472 9.0367,3.11472 h 25.95902 v -17.22793 h -16.86559 v -11.78724 h 15.46195 v -16.79239 h -15.46195 v -10.12741 h 16.86559 v -17.14008 z m 41.95534,0 c -4.30809,0 -7.35872,0.99724 -9.14834,2.99758 -1.78973,2.00046 -2.69381,5.22507 -2.69381,9.66075 v 60.41672 h 20.82212 v -56.72006 c 6.13574,1e-4 9.20506,2.43332 9.20506,7.30368 0,3.41724 -1.48672,6.18864 -4.37744,8.41084 -2.87985,2.21385 -4.2658,5.60599 -4.2658,10.04137 0,2.03457 0.39971,4.32811 1.29017,6.86811 l 8.44743,24.09606 h 22.78757 l -13.69413,-32.50688 1.20599,-0.64051 c 2.33471,-1.23998 4.63859,-3.4215 6.90288,-6.54786 2.26428,-3.12636 3.39654,-6.96029 3.39654,-11.46698 0,-6.69029 -2.12714,-12.01317 -6.39962,-15.9762 -4.27259,-3.96312 -10.34191,-5.93662 -18.15576,-5.93662 z m -181.09272,30.32365 2.72308,16.67525 h -5.69689 z"
       style="font-style:normal;font-variant:normal;font-weight:normal;font-stretch:normal;font-size:119.525px;line-height:84%;font-family:'Harry Obese Squeezed';-inkscape-font-specification:'Harry Obese Squeezed';text-align:center;letter-spacing:0px;word-spacing:0px;writing-mode:lr-tb;text-anchor:middle;opacity:1;fill:#3c3c72;fill-opacity:1;stroke:none;stroke-width:0;stroke-miterlimit:4;stroke-dasharray:none" /><path
       style="font-style:normal;font-variant:normal;font-weight:normal;font-stretch:normal;font-size:119.525px;line-height:84%;font-family:'Harry Obese Squeezed';-inkscape-font-specification:'Harry Obese Squeezed';text-align:center;letter-spacing:0px;word-spacing:0px;writing-mode:lr-tb;text-anchor:middle;fill:url(#linearGradient20008);fill-opacity:1;stroke:url(#linearGradient7805);stroke-width:2;stroke-miterlimit:4;stroke-dasharray:none;stroke-opacity:1"
       d="m 322.74454,100.90153 c -4.30809,0 -7.35872,0.99724 -9.14834,2.99759 -1.78973,2.00046 -2.69381,5.22506 -2.69381,9.66075 v 60.41671 h 20.82212 v -56.72005 c 6.13574,1e-4 9.20506,2.43331 9.20506,7.30367 0,3.41724 -1.48672,6.18864 -4.37744,8.41084 -2.87985,2.21385 -4.2658,5.60599 -4.2658,10.04137 0,2.03457 0.39971,4.32811 1.29017,6.86811 l 8.44743,24.09606 h 22.78757 l -13.69413,-32.50688 1.20599,-0.64051 c 2.33471,-1.23998 4.63859,-3.4215 6.90288,-6.54786 2.26428,-3.12636 3.39654,-6.96029 3.39654,-11.46698 0,-6.69028 -2.12714,-12.01317 -6.39962,-15.97619 -4.27259,-3.96313 -10.34191,-5.93663 -18.15576,-5.93663 z"
       id="path7061" /><path
       style="font-style:normal;font-variant:normal;font-weight:normal;font-stretch:normal;font-size:119.525px;line-height:84%;font-family:'Harry Obese Squeezed';-inkscape-font-specification:'Harry Obese Squeezed';text-align:center;letter-spacing:0px;word-spacing:0px;writing-mode:lr-tb;text-anchor:middle;fill:url(#linearGradient20010);fill-opacity:1;stroke:url(#linearGradient7799);stroke-width:2;stroke-miterlimit:4;stroke-dasharray:none;stroke-opacity:1"
       d="m 280.7892,100.90153 c -4.08973,0 -7.0399,1.08403 -8.86651,3.23001 -1.82638,2.14571 -2.72308,5.43019 -2.72308,9.86571 v 46.88361 c 0,4.57984 0.91481,7.90856 2.77799,9.981 1.86339,2.07267 4.87571,3.11472 9.0367,3.11472 h 25.95902 v -17.22793 h -16.86559 v -11.78724 h 15.46195 v -16.79239 h -15.46195 v -10.1274 h 16.86559 v -17.14009 z"
       id="path7059" /><path
       style="font-style:normal;font-variant:normal;font-weight:normal;font-stretch:normal;font-size:119.525px;line-height:84%;font-family:'Harry Obese Squeezed';-inkscape-font-specification:'Harry Obese Squeezed';text-align:center;letter-spacing:0px;word-spacing:0px;writing-mode:lr-tb;text-anchor:middle;fill:url(#linearGradient20012);fill-opacity:1;stroke:url(#linearGradient7797);stroke-width:2;stroke-miterlimit:4;stroke-dasharray:none;stroke-opacity:1"
       d="m 211.22052,100.90153 v 73.07505 h 20.57139 v -28.46251 h 12.48815 v 28.46251 h 20.59883 v -73.07505 h -20.59883 v 26.71482 h -12.48815 v -26.71482 z"
       id="path7057" /><path
       style="font-style:normal;font-variant:normal;font-weight:normal;font-stretch:normal;font-size:119.525px;line-height:84%;font-family:'Harry Obese Squeezed';-inkscape-font-specification:'Harry Obese Squeezed';text-align:center;letter-spacing:0px;word-spacing:0px;writing-mode:lr-tb;text-anchor:middle;fill:url(#linearGradient20014);fill-opacity:1;stroke:url(#linearGradient7795);stroke-width:2;stroke-miterlimit:4;stroke-dasharray:none;stroke-opacity:1"
       d="m 161.8572,100.90153 v 17.89773 h 12.91088 v 55.17732 h 20.93375 v -55.17732 h 12.82487 v -17.89773 z"
       id="path7055" /><path
       style="font-style:normal;font-variant:normal;font-weight:normal;font-stretch:normal;font-size:119.525px;line-height:84%;font-family:'Harry Obese Squeezed';-inkscape-font-specification:'Harry Obese Squeezed';text-align:center;letter-spacing:0px;word-spacing:0px;writing-mode:lr-tb;text-anchor:middle;fill:url(#linearGradient20016);fill-opacity:1;stroke:url(#linearGradient7065);stroke-width:2;stroke-miterlimit:4;stroke-dasharray:none;stroke-opacity:1"
       d="m 86.227436,100.90153 c -4.089754,0 -7.042067,1.08421 -8.868336,3.23001 -1.826357,2.14589 -2.750542,5.43019 -2.750542,9.86571 v 46.88361 c 0,4.57984 0.944026,7.90839 2.807277,9.981 1.863153,2.0725 4.875698,3.11472 9.0367,3.11472 H 112.41155 V 156.74865 H 95.544131 V 144.96141 H 110.97864 V 128.16902 H 95.544131 v -10.1274 h 16.867419 v -17.14009 z"
       id="path7053" /><path
       id="path7051"
       style="font-style:normal;font-variant:normal;font-weight:normal;font-stretch:normal;font-size:119.525px;line-height:84%;font-family:'Harry Obese Squeezed';-inkscape-font-specification:'Harry Obese Squeezed';text-align:center;letter-spacing:0px;word-spacing:0px;writing-mode:lr-tb;text-anchor:middle;fill:url(#linearGradient20018);fill-opacity:1;stroke:url(#linearGradient7793);stroke-width:2;stroke-miterlimit:4;stroke-dasharray:none;stroke-opacity:1"
       d="m 141.76527,99.47411 c -3.94489,0 -7.03408,0.91737 -9.26179,2.73589 -2.22768,1.8185 -3.85669,4.68031 -4.77089,8.61397 l -14.67686,63.15261 h 21.01975 l 1.88127,-10.24453 h 11.16869 l 1.6269,10.24453 h 20.93557 l -13.91922,-63.15261 c -1.66741,-7.56517 -6.33664,-11.34986 -14.00342,-11.34986 z m -0.11345,31.75107 2.72308,16.67525 h -5.69689 z" /><path
       style="font-style:normal;font-variant:normal;font-weight:normal;font-stretch:normal;font-size:119.525px;line-height:84%;font-family:'Harry Obese Squeezed';-inkscape-font-specification:'Harry Obese Squeezed';text-align:center;letter-spacing:0px;word-spacing:0px;writing-mode:lr-tb;text-anchor:middle;fill:url(#linearGradient1066);fill-opacity:1;stroke:url(#linearGradient6303);stroke-width:2;stroke-miterlimit:4;stroke-dasharray:none;stroke-opacity:1"
       d="m 30.914699,99.47411 c -5.988537,0 -9.366039,2.86598 -10.299427,8.52794 l -4.600697,27.90801 -5.585262,-35.00853 h -21.131385 l 13.4690413,65.4493 c 1.2420316,6.03533 5.1198003,9.05134 11.6188787,9.05134 6.791001,0 10.664529,-3.01854 11.703055,-9.05134 l 4.714164,-27.38461 4.827623,27.38461 c 1.062774,6.02857 4.910067,9.05134 11.701238,9.05134 6.427425,0 10.324069,-3.01149 11.618877,-9.05134 l 14.030862,-65.4493 H 51.738642 l -5.585263,35.00853 -5.050886,-27.90801 c -1.026199,-5.67012 -4.417545,-8.52794 -10.187794,-8.52794 z"
       id="path3786" /><path
       style="font-style:normal;font-variant:normal;font-weight:normal;font-stretch:normal;font-size:119.525px;line-height:84%;font-family:'Harry Obese Squeezed';-inkscape-font-specification:'Harry Obese Squeezed';text-align:center;letter-spacing:0px;word-spacing:0px;writing-mode:lr-tb;text-anchor:middle;fill:none;fill-opacity:1;stroke:url(#linearGradient12241);stroke-width:2;stroke-miterlimit:4;stroke-dasharray:none;stroke-opacity:1"
       d="m 141.65182,131.22518 2.72308,16.67525 h -5.69689 z"
       id="path12054" /></g></svg>
